<svg width="57" height="57" viewBox="0 0 57 57" fill="none" xmlns="http://www.w3.org/2000/svg">
<path d="M56 56V8.33333C56 8.33333 52.9444 1 42.25 1C31.5556 1 28.5 12 28.5 12C28.5 12 25.4444 1 14.75 1C4.05556 1 1 8.33333 1 8.33333V56C1 56 4.05556 48.6667 14.75 48.6667C25.4444 48.6667 28.5 56 28.5 56C28.5 56 31.5556 48.6667 42.25 48.6667C52.9444 48.6667 56 56 56 56Z" fill="black"/>
<path d="M56 8.33333H57C57 8.20131 56.9739 8.07059 56.9231 7.94872L56 8.33333ZM56 56L55.0769 56.3846C55.2603 56.8246 55.7287 57.0741 56.1961 56.9806C56.6635 56.8871 57 56.4767 57 56H56ZM1 8.33333L0.0769231 7.94872C0.0261438 8.07059 0 8.20131 0 8.33333H1ZM1 56H0C0 56.4767 0.33646 56.8871 0.803884 56.9806C1.27131 57.0741 1.73974 56.8246 1.92308 56.3846L1 56ZM28.5 56L27.5769 56.3846C27.7322 56.7573 28.0963 57 28.5 57C28.9037 57 29.2678 56.7573 29.4231 56.3846L28.5 56ZM28.5 12L27.5365 12.2676C27.6567 12.7005 28.0508 13 28.5 13C28.9492 13 29.3433 12.7005 29.4635 12.2676L28.5 12ZM55 8.33333V56H57V8.33333H55ZM0 8.33333V56H2V8.33333H0ZM56 56C56.9231 55.6154 56.9228 55.6148 56.9226 55.6142C56.9225 55.6139 56.9222 55.6133 56.922 55.6128C56.9216 55.6118 56.9211 55.6107 56.9206 55.6095C56.9196 55.6072 56.9184 55.6043 56.917 55.601C56.9142 55.5945 56.9106 55.5861 56.9062 55.5761C56.8973 55.556 56.8852 55.5291 56.8697 55.4958C56.8388 55.4292 56.7942 55.337 56.7347 55.223C56.616 54.9949 56.4376 54.6785 56.1902 54.3035C55.6957 53.554 54.9222 52.5654 53.7929 51.5799C51.5186 49.595 47.8501 47.6667 42.25 47.6667V49.6667C47.3444 49.6667 50.5508 51.405 52.4779 53.0868C53.4493 53.9346 54.1081 54.7794 54.5208 55.4048C54.7269 55.7173 54.8708 55.9739 54.9609 56.1468C55.0059 56.2333 55.0374 56.2986 55.0564 56.3395C55.0659 56.3599 55.0723 56.3742 55.0757 56.3818C55.0773 56.3857 55.0783 56.3879 55.0785 56.3883C55.0786 56.3886 55.0785 56.3884 55.0783 56.3878C55.0781 56.3875 55.0779 56.3871 55.0777 56.3865C55.0776 56.3863 55.0774 56.3858 55.0774 56.3857C55.0771 56.3851 55.0769 56.3846 56 56ZM42.25 47.6667C36.6499 47.6667 32.9814 49.595 30.707 51.5799C29.5778 52.5654 28.8043 53.554 28.3098 54.3035C28.0624 54.6785 27.884 54.9949 27.7653 55.223C27.7058 55.337 27.6612 55.4292 27.6303 55.4958C27.6148 55.5291 27.6027 55.556 27.5938 55.5761C27.5894 55.5861 27.5858 55.5945 27.583 55.601C27.5816 55.6043 27.5804 55.6072 27.5794 55.6095C27.5789 55.6107 27.5784 55.6118 27.578 55.6128C27.5778 55.6133 27.5775 55.6139 27.5774 55.6142C27.5772 55.6148 27.5769 55.6154 28.5 56C29.4231 56.3846 29.4229 56.3851 29.4226 56.3857C29.4226 56.3858 29.4224 56.3863 29.4223 56.3865C29.4221 56.3871 29.4219 56.3875 29.4217 56.3878C29.4215 56.3884 29.4214 56.3886 29.4215 56.3883C29.4217 56.3879 29.4227 56.3857 29.4243 56.3818C29.4277 56.3742 29.4341 56.3599 29.4436 56.3395C29.4626 56.2986 29.4941 56.2333 29.5391 56.1468C29.6292 55.9739 29.7731 55.7173 29.9792 55.4048C30.3919 54.7794 31.0507 53.9346 32.0221 53.0868C33.9492 51.405 37.1556 49.6667 42.25 49.6667V47.6667ZM28.5 56C29.4231 55.6154 29.4228 55.6148 29.4226 55.6142C29.4225 55.6139 29.4222 55.6133 29.422 55.6128C29.4216 55.6118 29.4211 55.6107 29.4206 55.6095C29.4196 55.6072 29.4184 55.6043 29.417 55.601C29.4142 55.5945 29.4106 55.5861 29.4062 55.5761C29.3973 55.556 29.3852 55.5291 29.3697 55.4958C29.3388 55.4292 29.2942 55.337 29.2347 55.223C29.116 54.9949 28.9376 54.6785 28.6902 54.3035C28.1957 53.554 27.4222 52.5654 26.293 51.5799C24.0186 49.595 20.3501 47.6667 14.75 47.6667V49.6667C19.8444 49.6667 23.0508 51.405 24.9779 53.0868C25.9493 53.9346 26.6081 54.7794 27.0208 55.4048C27.2269 55.7173 27.3708 55.9739 27.4609 56.1468C27.5059 56.2333 27.5374 56.2986 27.5564 56.3395C27.5659 56.3599 27.5723 56.3742 27.5757 56.3818C27.5773 56.3857 27.5783 56.3879 27.5785 56.3883C27.5786 56.3886 27.5785 56.3884 27.5783 56.3878C27.5781 56.3875 27.5779 56.3871 27.5777 56.3865C27.5776 56.3863 27.5774 56.3858 27.5774 56.3857C27.5771 56.3851 27.5769 56.3846 28.5 56ZM14.75 47.6667C9.14991 47.6667 5.48138 49.595 3.20705 51.5799C2.07778 52.5654 1.3043 53.554 0.809815 54.3035C0.562395 54.6785 0.384049 54.9949 0.265267 55.223C0.205847 55.337 0.161237 55.4292 0.130261 55.4958C0.11477 55.5291 0.102678 55.556 0.0938402 55.5761C0.0894207 55.5861 0.0858135 55.5945 0.0830004 55.601C0.0815938 55.6043 0.0803856 55.6072 0.0793735 55.6095C0.0788674 55.6107 0.0784104 55.6118 0.0780021 55.6128C0.0777982 55.6133 0.0775278 55.6139 0.0774262 55.6142C0.0771686 55.6148 0.0769231 55.6154 1 56C1.92308 56.3846 1.92285 56.3851 1.92264 56.3857C1.92259 56.3858 1.92239 56.3863 1.92228 56.3865C1.92206 56.3871 1.92188 56.3875 1.92175 56.3878C1.92149 56.3884 1.92141 56.3886 1.92151 56.3883C1.92172 56.3879 1.92265 56.3857 1.92434 56.3818C1.92772 56.3742 1.93409 56.3599 1.94359 56.3395C1.9626 56.2986 1.99408 56.2333 2.0391 56.1468C2.12919 55.9739 2.27311 55.7173 2.47925 55.4048C2.89188 54.7794 3.55069 53.9346 4.52212 53.0868C6.44918 51.405 9.65564 49.6667 14.75 49.6667V47.6667ZM56 8.33333C56.9231 7.94872 56.9228 7.94813 56.9226 7.94751C56.9225 7.94727 56.9222 7.94662 56.922 7.94614C56.9216 7.94516 56.9211 7.94408 56.9206 7.94288C56.9196 7.94048 56.9184 7.93764 56.917 7.93436C56.9142 7.92779 56.9106 7.91945 56.9062 7.90941C56.8973 7.88934 56.8852 7.86242 56.8697 7.82913C56.8388 7.76255 56.7942 7.67038 56.7347 7.55629C56.616 7.32823 56.4376 7.01186 56.1902 6.63682C55.6957 5.88729 54.9222 4.89878 53.7929 3.91324C51.5186 1.92837 47.8501 0 42.25 0V2C47.3444 2 50.5508 3.73829 52.4779 5.42009C53.4493 6.26788 54.1081 7.11271 54.5208 7.73818C54.7269 8.05064 54.8708 8.30718 54.9609 8.48016C55.0059 8.5666 55.0374 8.63198 55.0564 8.67283C55.0659 8.69324 55.0723 8.70751 55.0757 8.71518C55.0773 8.71902 55.0783 8.7212 55.0785 8.72168C55.0786 8.72192 55.0785 8.72174 55.0783 8.72112C55.0781 8.72081 55.0779 8.72039 55.0777 8.71986C55.0776 8.7196 55.0774 8.71912 55.0774 8.71899C55.0771 8.71848 55.0769 8.71795 56 8.33333ZM42.25 0C36.503 0 32.799 2.97493 30.5699 5.89296C29.4594 7.34672 28.7056 8.79526 28.2292 9.87865C27.9903 10.4216 27.8196 10.8765 27.7075 11.1993C27.6514 11.3608 27.6099 11.4896 27.5818 11.5802C27.5678 11.6255 27.5571 11.6613 27.5496 11.6869C27.5458 11.6996 27.5428 11.7099 27.5407 11.7175C27.5396 11.7213 27.5387 11.7245 27.538 11.7269C27.5377 11.7282 27.5373 11.7292 27.5371 11.7302C27.537 11.7306 27.5368 11.7312 27.5368 11.7314C27.5366 11.7319 27.5365 11.7324 28.5 12C29.4635 12.2676 29.4634 12.268 29.4633 12.2684C29.4633 12.2684 29.4632 12.2687 29.4632 12.2688C29.4631 12.2691 29.4631 12.2692 29.4631 12.2691C29.4632 12.2689 29.4634 12.268 29.4638 12.2666C29.4647 12.2636 29.4663 12.2581 29.4686 12.25C29.4733 12.234 29.4811 12.208 29.492 12.1727C29.5139 12.1022 29.5485 11.9946 29.5969 11.8554C29.6936 11.5766 29.8452 11.1721 30.0599 10.6838C30.4905 9.70474 31.1691 8.40328 32.1593 7.10704C34.1316 4.52507 37.3026 2 42.25 2V0ZM28.5 12C29.4635 11.7324 29.4634 11.7319 29.4632 11.7314C29.4632 11.7312 29.463 11.7306 29.4629 11.7302C29.4627 11.7292 29.4623 11.7282 29.462 11.7269C29.4613 11.7245 29.4604 11.7213 29.4593 11.7175C29.4572 11.7099 29.4542 11.6996 29.4504 11.6869C29.4429 11.6613 29.4322 11.6255 29.4182 11.5802C29.3901 11.4896 29.3486 11.3608 29.2925 11.1993C29.1804 10.8765 29.0097 10.4216 28.7708 9.87865C28.2944 8.79526 27.5406 7.34672 26.4301 5.89296C24.201 2.97493 20.497 0 14.75 0V2C19.6974 2 22.8684 4.52507 24.8407 7.10704C25.8309 8.40328 26.5095 9.70474 26.9401 10.6838C27.1548 11.1721 27.3064 11.5766 27.4031 11.8554C27.4515 11.9946 27.4861 12.1022 27.508 12.1727C27.5189 12.208 27.5267 12.234 27.5314 12.25C27.5337 12.2581 27.5353 12.2636 27.5362 12.2666C27.5366 12.268 27.5368 12.2689 27.5369 12.2691C27.5369 12.2692 27.5369 12.2691 27.5368 12.2688C27.5368 12.2687 27.5367 12.2684 27.5367 12.2684C27.5366 12.268 27.5365 12.2676 28.5 12ZM14.75 0C9.14991 0 5.48138 1.92837 3.20705 3.91324C2.07778 4.89878 1.3043 5.88729 0.809815 6.63682C0.562395 7.01186 0.384049 7.32823 0.265267 7.55629C0.205847 7.67038 0.161237 7.76255 0.130261 7.82913C0.11477 7.86242 0.102678 7.88934 0.0938401 7.90941C0.0894207 7.91945 0.0858135 7.92779 0.0830004 7.93436C0.0815938 7.93764 0.0803856 7.94048 0.0793735 7.94288C0.0788674 7.94408 0.0784104 7.94516 0.0780021 7.94614C0.0777982 7.94662 0.0775278 7.94727 0.0774261 7.94751C0.0771686 7.94813 0.0769231 7.94872 1 8.33333C1.92308 8.71795 1.92285 8.71848 1.92264 8.71899C1.92259 8.71912 1.92239 8.7196 1.92228 8.71986C1.92206 8.72039 1.92188 8.72081 1.92175 8.72112C1.92149 8.72173 1.92141 8.72192 1.92151 8.72168C1.92172 8.7212 1.92265 8.71902 1.92434 8.71518C1.92772 8.70751 1.93409 8.69324 1.94359 8.67283C1.9626 8.63198 1.99408 8.5666 2.0391 8.48016C2.12919 8.30718 2.27311 8.05064 2.47925 7.73818C2.89188 7.11271 3.55069 6.26788 4.52212 5.42009C6.44918 3.73829 9.65564 2 14.75 2V0Z" fill="#222222"/>
</svg>
