<svg width="33" height="32" viewBox="0 0 33 32" fill="none" xmlns="http://www.w3.org/2000/svg">
<path d="M16.5 30C24.232 30 30.5 23.732 30.5 16C30.5 8.268 24.232 2 16.5 2C8.768 2 2.5 8.268 2.5 16C2.5 23.732 8.768 30 16.5 30Z" fill="#FFD285"/>
<path opacity="0.53" d="M27.5 16C27.5 22.075 22.575 27 16.5 27C10.425 27 5.5 22.075 5.5 16C5.5 9.925 10.425 5 16.5 5C22.575 5 27.5 9.925 27.5 16ZM22.82 19.89C22.7848 19.7825 22.7166 19.6888 22.625 19.6223C22.5334 19.5559 22.4231 19.5201 22.31 19.52H22.34V11.76C22.77 11.48 22.85 10.79 22.33 10.48L16.94 7.22C16.8232 7.14647 16.688 7.10745 16.55 7.10745C16.412 7.10745 16.2768 7.14647 16.16 7.22L10.76 10.48C10.24 10.79 10.32 11.48 10.74 11.76V19.53H10.63C10.39 19.53 10.18 19.69 10.12 19.92L9.77 21.17C9.67 21.51 9.93 21.85 10.28 21.85H22.73C23.08 21.84 23.34 21.49 23.23 21.14L22.82 19.89ZM12.4 11.88V19.52H14.06V11.88H12.4ZM15.71 11.88V19.52H17.4V11.88H15.71ZM19.06 11.88V19.52H20.68V11.88H19.06Z" fill="#FF9F00"/>
</svg>
