<svg width="47" height="57" viewBox="0 0 47 57" fill="none" xmlns="http://www.w3.org/2000/svg">
<path d="M1 32.4286V1.5C1 1.2643 1 1.14645 1.07322 1.07322C1.14645 1 1.2643 1 1.5 1H19.1192C19.4258 1 19.5791 1 19.7014 1.0771C19.8236 1.15421 19.8896 1.29256 20.0217 1.56927L23.2283 8.28787C23.3604 8.56458 23.4264 8.70294 23.5486 8.78004C23.6709 8.85714 23.8242 8.85714 24.1308 8.85714H45.5C45.7357 8.85714 45.8536 8.85714 45.9268 8.93037C46 9.00359 46 9.12144 46 9.35714V39.7857C46 40.0214 46 40.1393 45.9268 40.2125C45.8536 40.2857 45.7357 40.2857 45.5 40.2857H24.1308C23.8242 40.2857 23.6709 40.2857 23.5486 40.2086C23.4264 40.1315 23.3604 39.9932 23.2283 39.7164L20.0217 32.9978C19.8896 32.7211 19.8236 32.5828 19.7014 32.5057C19.5791 32.4286 19.4258 32.4286 19.1192 32.4286H1Z" fill="#00BFC5"/>
<path d="M1 32.4286V1.5C1 1.2643 1 1.14645 1.07322 1.07322C1.14645 1 1.2643 1 1.5 1H19.1192C19.4258 1 19.5791 1 19.7014 1.0771C19.8236 1.15421 19.8896 1.29256 20.0217 1.56927L23.2283 8.28787C23.3604 8.56458 23.4264 8.70294 23.5486 8.78004C23.6709 8.85714 23.8242 8.85714 24.1308 8.85714H45.5C45.7357 8.85714 45.8536 8.85714 45.9268 8.93037C46 9.00359 46 9.12144 46 9.35714V39.7857C46 40.0214 46 40.1393 45.9268 40.2125C45.8536 40.2857 45.7357 40.2857 45.5 40.2857H24.1308C23.8242 40.2857 23.6709 40.2857 23.5486 40.2086C23.4264 40.1315 23.3604 39.9932 23.2283 39.7164L20.0217 32.9978C19.8896 32.7211 19.8236 32.5828 19.7014 32.5057C19.5791 32.4286 19.4258 32.4286 19.1192 32.4286H1ZM1 32.4286V56" stroke="#00BFC5" stroke-width="2" stroke-linecap="round"/>
</svg>
