<svg width="57" height="57" viewBox="0 0 57 57" fill="none" xmlns="http://www.w3.org/2000/svg">
<path fill-rule="evenodd" clip-rule="evenodd" d="M35.417 5.25913C35.7028 5.51826 35.745 5.94699 35.8292 6.80445L36.3469 12.0742C36.5092 13.726 36.5903 14.5519 37.1472 14.7803C37.7041 15.0087 38.3418 14.4776 39.6172 13.4155L43.5778 10.1171C44.2496 9.55765 44.5856 9.2779 44.9754 9.29738C45.3653 9.31686 45.6717 9.62869 46.2844 10.2523L50.9719 15.0236C51.5651 15.6273 51.8616 15.9292 51.8805 16.309C51.8994 16.6888 51.6343 17.0186 51.1041 17.6783L47.7532 21.847C46.7358 23.1127 46.2271 23.7455 46.4566 24.2943C46.6861 24.8431 47.4939 24.9253 49.1095 25.0897L54.2902 25.617C55.1446 25.704 55.5718 25.7475 55.8298 26.033C56.0877 26.3186 56.0877 26.748 56.0877 27.6068V34.3932C56.0877 35.252 56.0877 35.6814 55.8298 35.967C55.5718 36.2525 55.1446 36.296 54.2902 36.383L49.1106 36.9102L49.1106 36.9102C47.495 37.0746 46.6872 37.1568 46.4577 37.7056C46.2282 38.2544 46.7369 38.8872 47.7543 40.1529L51.1044 44.3206C51.6346 44.9802 51.8997 45.31 51.8808 45.6898C51.8619 46.0697 51.5653 46.3715 50.9722 46.9752L46.2847 51.7465C45.672 52.3702 45.3656 52.682 44.9757 52.7015C44.5858 52.7209 44.2499 52.4412 43.5781 51.8817L39.6173 48.5832C38.3419 47.5211 37.7043 46.99 37.1474 47.2184C36.5905 47.4468 36.5093 48.2727 36.3471 49.9245L35.8292 55.1956C35.745 56.053 35.7028 56.4817 35.417 56.7409C35.1312 57 34.7004 57 33.8388 57H27.2475C26.3859 57 25.9551 57 25.6693 56.7409C25.3835 56.4817 25.3413 56.053 25.2571 55.1955L24.7394 49.9265C24.5772 48.2747 24.496 47.4488 23.9391 47.2204C23.3822 46.992 22.7445 47.5231 21.4691 48.5852L17.5093 51.8829C16.8375 52.4424 16.5016 52.7221 16.1117 52.7026C15.7219 52.6832 15.4155 52.3713 14.8028 51.7477L10.1152 46.9764C9.5221 46.3727 9.22554 46.0708 9.20663 45.691C9.18772 45.3112 9.45284 44.9814 9.98307 44.3217L13.334 40.153C14.3514 38.8873 14.8602 38.2544 14.6306 37.7057C14.4011 37.1569 13.5933 37.0747 11.9778 36.9102L11.9777 36.9102L6.79747 36.383C5.9431 36.296 5.51591 36.2525 5.25795 35.967C5 35.6814 5 35.252 5 34.3932V27.6068C5 26.748 5 26.3186 5.25795 26.033C5.51591 25.7475 5.94309 25.704 6.79746 25.617H6.79747L11.9789 25.0896C13.5944 24.9252 14.4022 24.843 14.6318 24.2942C14.8613 23.7455 14.3526 23.1126 13.3352 21.8469L9.98336 17.6771C9.45313 17.0175 9.18801 16.6877 9.20692 16.3078C9.22583 15.928 9.52239 15.6261 10.1155 15.0224L14.8031 10.2512L14.8031 10.2512C15.4158 9.62751 15.7221 9.31568 16.112 9.2962C16.5019 9.27673 16.8378 9.55647 17.5096 10.116L21.4693 13.4135C22.7447 14.4757 23.3824 15.0067 23.9392 14.7783C24.4961 14.5499 24.5773 13.724 24.7396 12.0722L25.2571 6.80445C25.3413 5.94699 25.3835 5.51826 25.6693 5.25913C25.9551 5 26.3859 5 27.2475 5H33.8388C34.7004 5 35.1312 5 35.417 5.25913ZM30.5435 41.4C36.1865 41.4 40.761 36.7438 40.761 31C40.761 25.2562 36.1865 20.6 30.5435 20.6C24.9005 20.6 20.326 25.2562 20.326 31C20.326 36.7438 24.9005 41.4 30.5435 41.4Z" fill="black"/>
</svg>
