<svg width="597" height="750" viewBox="0 0 597 750" fill="none" xmlns="http://www.w3.org/2000/svg">
<path d="M400.441 443.782H545.031C545.031 443.782 537.837 434.424 529.918 433.251C529.918 433.251 514.554 387.354 488.687 387.033C464.705 386.726 455.081 415.247 455.081 415.247C455.081 415.247 443.908 402.453 433.348 408.263C422.789 414.074 416.713 430.862 416.713 430.862C416.713 430.862 404.771 437.343 400.441 443.782Z" fill="#FBFDFF"/>
<path d="M182.846 265.406H0C0 265.406 0 253.729 25.1411 251.439C25.1411 251.439 48.1312 200.374 83.2449 207.246C105.118 211.436 116.291 241.536 116.291 241.536C116.291 241.536 132.815 217.903 146.028 222.485C159.241 227.066 167.09 252.207 167.09 252.207C167.09 252.207 180.778 258.813 182.846 265.406Z" fill="#FBFDFF"/>
<path d="M537.111 225.962H412.803C412.803 225.962 424.535 215.04 429.745 215.04C434.955 215.04 450.179 178.376 469.622 179.94C489.064 181.505 499.386 208.797 499.386 208.797C499.386 208.797 523.018 201.394 537.111 225.962Z" fill="#FBFDFF"/>
<path d="M260.825 375.608H154.492C154.492 375.608 159.786 368.722 165.666 367.856C165.666 367.856 177.007 334.111 195.975 333.874C213.616 333.65 220.697 354.629 220.697 354.629C220.697 354.629 228.868 345.215 236.676 349.517C244.483 353.819 248.911 366.138 248.911 366.138C248.911 366.138 257.627 370.873 260.825 375.608Z" fill="#FBFDFF"/>
<path d="M168.403 133.485H313.02C313.02 133.485 305.841 124.127 297.908 122.954C297.908 122.954 282.544 77.0574 256.69 76.7361C232.695 76.4288 223.071 104.95 223.071 104.95C223.071 104.95 211.897 92.156 201.338 97.9664C190.779 103.777 184.717 120.565 184.717 120.565C184.717 120.565 172.733 127.046 168.403 133.485Z" fill="#FBFDFF"/>
<path d="M429.088 59.9894C429.088 81.1079 413.43 103.497 400.455 121.445C395.245 128.666 390.566 135.343 387.158 140.287C383.54 145.511 381.306 148.821 381.306 148.821H356.877C356.877 148.821 354.642 145.511 351.024 140.287C347.616 135.343 342.937 128.666 337.728 121.445C324.752 103.47 309.095 81.08 309.095 59.9894C309.095 25.4902 334.767 3.00293 363.26 0.279316H363.553C365.383 0.125677 367.24 0.0418701 369.14 0.0418701C371.04 0.0418701 372.855 0.125677 374.727 0.279316H375.02C403.416 3.00293 429.088 25.4902 429.088 59.9894Z" fill="#FBFDFF"/>
<path d="M373.29 140.315C372.829 143.109 372.34 145.902 371.893 148.849H366.432C365.915 145.944 365.426 143.109 364.965 140.315C344.978 19.9173 369.155 0 369.155 0C369.155 0 393.277 19.9173 373.29 140.315Z" fill="white"/>
<path d="M360.077 140.315C362.326 145.679 363.834 148.849 363.834 148.849H360.636C360.636 148.849 358.583 145.665 355.286 140.315C352.912 136.418 349.881 131.376 346.515 125.538C335.523 106.403 321.374 82.6862 324.042 56.2183C327.673 19.5681 358.666 2.5979 363.262 0.349171L363.834 0.0698242L363.555 0.307271C360.929 2.70964 340.258 22.7946 340.258 59.8637C340.258 89.3626 353.415 124.462 360.077 140.315Z" fill="white"/>
<path d="M391.67 125.538C388.304 131.376 385.273 136.418 382.899 140.315C379.602 145.665 377.549 148.849 377.549 148.849H374.351C374.351 148.849 375.859 145.679 378.108 140.315C384.77 124.462 397.927 89.3626 397.927 59.7939C397.927 22.7247 377.256 2.63981 374.63 0.237441L374.351 0L374.923 0.279346C379.518 2.59791 410.512 19.5681 414.143 56.2183C416.769 82.6862 402.662 106.403 391.67 125.538Z" fill="white"/>
<path d="M387.159 140.315C383.541 145.539 381.306 148.849 381.306 148.849H356.878C356.878 148.849 354.643 145.539 351.025 140.315H387.159Z" fill="#FF9F00"/>
<path d="M332.618 91.3063L331.282 91.7119L355.956 173.028L357.293 172.622L332.618 91.3063Z" fill="#FF9F00"/>
<path d="M357.324 91.4802L355.93 91.5742L361.417 172.888L362.81 172.794L357.324 91.4802Z" fill="#FF9F00"/>
<path d="M405.554 91.3164L380.908 172.641L382.245 173.046L406.891 91.7215L405.554 91.3164Z" fill="#FF9F00"/>
<path d="M380.841 91.4784L375.355 172.793L376.749 172.887L382.235 91.5725L380.841 91.4784Z" fill="#FF9F00"/>
<path d="M421.742 90.9269H316.429V93.7203H421.742V90.9269Z" fill="#FF9F00"/>
<path d="M382.773 173.166L382.186 180.22L380.873 196.1H357.31L355.997 180.22L355.411 173.166H382.773Z" fill="#FBFDFF"/>
<path d="M382.773 173.166L382.186 180.22H355.997L355.411 173.166H382.773Z" fill="#FF9F00"/>
<path d="M384.142 171.169H354.043V175.164H384.142V171.169Z" fill="#FBFDFF"/>
<path d="M303.516 749.794C437.761 749.794 546.589 737.606 546.589 722.572C546.589 707.537 437.761 695.349 303.516 695.349C169.271 695.349 60.4438 707.537 60.4438 722.572C60.4438 737.606 169.271 749.794 303.516 749.794Z" fill="#FBFDFF"/>
<path d="M144.904 174.384C144.443 174.049 121.816 169.733 106.983 188.351C93.3367 205.461 93.5462 231.133 95.9346 231.161C98.8537 231.161 103.477 217.738 116.313 207.78C120.866 204.246 129.582 204.442 129.582 204.442L144.904 174.384Z" fill="#FF9F00"/>
<path d="M188.159 205.378C188.62 205.699 199.975 225.742 187.125 245.771C175.309 264.194 150.922 272.309 150.14 269.99C149.19 267.197 160.42 258.537 165.728 243.173C167.613 237.726 164.624 229.541 164.624 229.541L188.159 205.378Z" fill="#FF9F00"/>
<path d="M149.219 242.377L122.555 223.27C122.555 223.27 123.742 195.028 141.634 173.155C150.614 162.562 161.342 153.586 173.354 146.617C188.578 137.58 202.42 133.362 205.479 135.583C208.538 137.804 209.027 152.344 205.381 169.593C202.648 183.19 197.618 196.222 190.506 208.129C175.575 232.167 149.219 242.377 149.219 242.377Z" fill="#EBEBEB"/>
<path d="M147.189 240.901L124.606 224.721L119.693 231.579L142.276 247.759L147.189 240.901Z" fill="#FF9F00"/>
<path d="M182.335 195.796C180.469 198.402 177.872 200.395 174.873 201.525C171.874 202.655 168.607 202.869 165.486 202.142C162.364 201.414 159.529 199.777 157.338 197.438C155.147 195.099 153.699 192.163 153.177 189.001C152.655 185.838 153.083 182.592 154.406 179.673C155.73 176.754 157.889 174.293 160.611 172.601C163.333 170.91 166.496 170.063 169.699 170.169C172.902 170.275 176.002 171.329 178.606 173.197C180.336 174.435 181.804 176.002 182.928 177.809C184.052 179.615 184.808 181.625 185.155 183.724C185.501 185.822 185.43 187.969 184.946 190.04C184.463 192.112 183.576 194.068 182.335 195.796Z" fill="#FF9F00"/>
<path d="M169.178 197.598C175.38 197.598 180.408 192.57 180.408 186.368C180.408 180.166 175.38 175.138 169.178 175.138C162.976 175.138 157.949 180.166 157.949 186.368C157.949 192.57 162.976 197.598 169.178 197.598Z" fill="#FBFDFF"/>
<path d="M205.423 169.663L173.298 146.687C188.523 137.65 202.364 133.432 205.423 135.653C208.482 137.874 209.069 152.344 205.423 169.663Z" fill="#FF9F00"/>
<path d="M180.073 147.204C179.981 147.331 179.866 147.438 179.733 147.52C179.599 147.603 179.451 147.657 179.297 147.682C179.143 147.707 178.985 147.701 178.833 147.664C178.681 147.628 178.537 147.561 178.411 147.469C178.155 147.284 177.984 147.005 177.934 146.693C177.884 146.382 177.96 146.063 178.145 145.807C178.331 145.552 178.61 145.38 178.921 145.33C179.233 145.281 179.552 145.357 179.807 145.542C179.936 145.632 180.045 145.747 180.128 145.88C180.211 146.013 180.267 146.162 180.291 146.317C180.316 146.472 180.31 146.63 180.272 146.783C180.235 146.935 180.167 147.078 180.073 147.204Z" fill="#EBEBEB"/>
<path d="M186.191 151.618C186.1 151.745 185.984 151.852 185.851 151.934C185.718 152.016 185.57 152.071 185.415 152.096C185.261 152.12 185.103 152.114 184.951 152.078C184.799 152.041 184.655 151.975 184.529 151.883C184.402 151.791 184.295 151.676 184.213 151.542C184.131 151.409 184.077 151.261 184.052 151.107C184.027 150.953 184.033 150.795 184.07 150.643C184.106 150.491 184.172 150.347 184.264 150.221C184.355 150.094 184.471 149.987 184.604 149.905C184.737 149.823 184.885 149.769 185.04 149.744C185.194 149.719 185.352 149.725 185.504 149.762C185.656 149.798 185.799 149.864 185.926 149.956C186.054 150.046 186.163 150.161 186.246 150.294C186.329 150.427 186.385 150.576 186.41 150.731C186.434 150.885 186.428 151.044 186.39 151.196C186.353 151.349 186.285 151.492 186.191 151.618Z" fill="#EBEBEB"/>
<path d="M192.393 156.045C192.301 156.172 192.186 156.279 192.052 156.362C191.919 156.444 191.771 156.499 191.617 156.523C191.462 156.548 191.305 156.542 191.152 156.505C191 156.469 190.857 156.402 190.731 156.31C190.604 156.219 190.497 156.103 190.415 155.97C190.333 155.837 190.278 155.689 190.254 155.534C190.229 155.38 190.235 155.222 190.271 155.07C190.308 154.918 190.373 154.775 190.465 154.648C190.557 154.522 190.673 154.414 190.806 154.333C190.939 154.251 191.087 154.196 191.241 154.171C191.396 154.147 191.553 154.153 191.705 154.189C191.857 154.225 192.001 154.291 192.127 154.383C192.254 154.474 192.362 154.59 192.444 154.723C192.526 154.856 192.581 155.004 192.605 155.159C192.63 155.313 192.624 155.471 192.587 155.623C192.551 155.775 192.485 155.919 192.393 156.045Z" fill="#EBEBEB"/>
<path d="M198.552 160.445C198.46 160.572 198.345 160.679 198.212 160.761C198.078 160.843 197.93 160.898 197.776 160.923C197.622 160.947 197.464 160.941 197.312 160.905C197.16 160.868 197.016 160.802 196.89 160.71C196.763 160.618 196.656 160.503 196.574 160.369C196.492 160.236 196.437 160.088 196.413 159.934C196.388 159.78 196.394 159.622 196.43 159.47C196.467 159.318 196.533 159.175 196.624 159.048C196.716 158.921 196.832 158.814 196.965 158.732C197.098 158.65 197.246 158.596 197.4 158.571C197.555 158.546 197.713 158.552 197.865 158.589C198.017 158.625 198.16 158.691 198.286 158.783C198.413 158.874 198.521 158.99 198.603 159.123C198.685 159.256 198.74 159.404 198.765 159.558C198.789 159.713 198.783 159.871 198.747 160.023C198.71 160.175 198.644 160.318 198.552 160.445Z" fill="#EBEBEB"/>
<path d="M204.712 164.859C204.527 165.114 204.249 165.286 203.938 165.339C203.627 165.391 203.308 165.319 203.05 165.138C202.793 164.95 202.621 164.67 202.568 164.357C202.516 164.044 202.589 163.722 202.77 163.462C202.958 163.205 203.239 163.032 203.553 162.983C203.868 162.933 204.189 163.01 204.446 163.196C204.573 163.288 204.681 163.404 204.763 163.537C204.845 163.67 204.9 163.818 204.924 163.972C204.949 164.127 204.943 164.285 204.907 164.437C204.87 164.589 204.804 164.732 204.712 164.859Z" fill="#EBEBEB"/>
<path d="M189.221 410.515C189.221 409.565 189.124 408.615 189.124 407.721H190.171C190.171 408.615 190.171 409.537 190.269 410.515H189.221Z" fill="#263238"/>
<path d="M289.926 485.84H288.263V484.793C290.121 484.793 291.979 484.793 293.85 484.793V485.84C292.579 485.812 291.252 485.84 289.926 485.84ZM281.21 485.491C279.338 485.337 277.439 485.128 275.623 484.877L275.763 483.843C277.606 484.094 279.478 484.29 281.35 484.444L281.21 485.491ZM300.974 485.268L300.862 484.234C302.706 484.038 304.577 483.801 306.449 483.522L306.603 484.555C304.717 484.835 302.831 485.086 300.974 485.268ZM268.598 483.703C266.782 483.34 264.924 482.907 263.094 482.446L263.346 481.427C265.162 481.888 267.005 482.32 268.807 482.684L268.598 483.703ZM313.502 483.256L313.279 482.223C315.081 481.832 316.91 481.385 318.726 480.826L318.991 481.846C317.176 482.39 315.332 482.879 313.516 483.256H313.502ZM256.237 480.463C254.449 479.89 252.661 479.248 250.901 478.577L251.278 477.6C253.01 478.27 254.784 478.899 256.558 479.471L256.237 480.463ZM325.682 479.834L325.347 478.843C327.106 478.256 328.88 477.614 330.612 476.929L331.003 477.907C329.327 478.591 327.539 479.234 325.766 479.834H325.682ZM244.476 475.896C242.772 475.127 241.068 474.289 239.392 473.423L239.881 472.488C241.529 473.354 243.233 474.178 244.909 474.946L244.476 475.896ZM337.582 475.197L337.149 474.247C338.825 473.465 340.501 472.627 342.121 471.733L342.624 472.655C340.976 473.493 339.286 474.345 337.582 475.141V475.197ZM233.218 469.973C231.612 468.996 230.006 467.976 228.456 466.943L229.028 466.063C230.565 467.096 232.157 468.116 233.763 469.08L233.218 469.973ZM348.686 469.038L348.113 468.158C349.636 467.152 351.186 466.077 352.695 464.959L353.323 465.797C351.787 466.873 350.236 467.962 348.686 468.982V469.038ZM222.701 462.822C221.221 461.677 219.74 460.476 218.301 459.261L218.986 458.464C220.383 459.68 221.863 460.853 223.344 461.984L222.701 462.822ZM358.812 461.425L358.128 460.629C359.525 459.442 360.921 458.171 362.318 456.872L363.044 457.626C361.62 458.842 360.209 460.127 358.812 461.328V461.425ZM213.064 454.554C211.667 453.241 210.382 451.872 209.125 450.503L209.893 449.791C211.136 451.187 212.463 452.5 213.804 453.799L213.064 454.554ZM367.933 452.584L367.165 451.872C368.394 450.475 369.637 449.078 370.866 447.682L371.662 448.366C370.419 449.721 369.162 451.146 367.933 452.486V452.584ZM204.516 445.14C203.342 443.645 202.197 442.123 201.136 440.6L201.988 440C203.035 441.508 204.167 443.017 205.34 444.483L204.516 445.14ZM376.146 442.751L375.322 442.109C376.425 440.712 377.542 439.148 378.646 437.597L379.498 438.198C378.324 439.762 377.193 441.299 376.146 442.751ZM197.364 434.538C196.401 432.876 195.507 431.186 194.711 429.538L195.647 429.077C196.429 430.711 197.309 432.374 198.272 434.022L197.364 434.538ZM383.464 432.388L382.584 431.801C383.604 430.251 384.624 428.672 385.615 427.08L386.509 427.625C385.448 429.231 384.428 430.823 383.409 432.388H383.464ZM191.987 422.988C191.357 421.201 190.821 419.383 190.381 417.54L191.4 417.289C191.831 419.097 192.353 420.883 192.965 422.638L191.987 422.988ZM390.141 421.591L389.247 421.06C390.183 419.454 391.118 417.834 392.04 416.185L392.948 416.702C391.97 418.35 391.035 420.026 390.113 421.591H390.141ZM396.356 410.529L395.434 410.026C396.314 408.392 397.194 406.73 398.074 405.068L398.996 405.556L396.356 410.529ZM402.236 399.355L401.301 398.88L403.857 393.866L404.792 394.327C403.908 395.984 403.037 397.642 402.181 399.299L402.236 399.355ZM407.949 388.041L407.013 387.567L409.527 382.538L410.463 382.999L407.949 388.041ZM413.62 376.714L412.684 376.239L415.212 371.211L416.148 371.686L413.62 376.714ZM419.346 365.414L418.424 364.94C419.276 363.277 420.142 361.615 421.022 359.939L421.958 360.428C421.022 362.034 420.156 363.696 419.29 365.359L419.346 365.414ZM425.268 354.241L424.347 353.738C425.241 352.104 426.134 350.456 427.056 348.821L427.964 349.338C427 350.902 426.093 352.537 425.213 354.171L425.268 354.241ZM431.428 343.234L430.52 342.718C431.47 341.097 432.42 339.477 433.383 337.871L434.277 338.416C433.272 339.971 432.303 341.568 431.372 343.206L431.428 343.234ZM437.965 332.452L437.071 331.893C438.076 330.315 439.096 328.736 440.13 327.172L440.996 327.759C439.92 329.239 438.901 330.818 437.909 332.382L437.965 332.452ZM444.948 321.948L444.096 321.348C445.172 319.811 446.261 318.275 447.379 316.766L448.217 317.381C447.081 318.843 445.973 320.342 444.892 321.878L444.948 321.948ZM452.463 311.794L451.569 311.082C452.728 309.601 453.915 308.149 455.117 306.696L455.927 307.366C454.739 308.805 453.566 310.258 452.407 311.724L452.463 311.794ZM460.564 302.115L459.782 301.416C461.029 300.02 462.3 298.623 463.595 297.226L464.349 297.939C463.008 299.279 461.751 300.648 460.508 302.045L460.564 302.115ZM469.265 292.98L468.539 292.24C469.936 290.927 471.249 289.628 472.631 288.357L473.344 289.125C471.905 290.326 470.536 291.611 469.21 292.924L469.265 292.98ZM478.595 284.502L477.925 283.706C479.322 282.491 480.83 281.304 482.297 280.144L482.939 280.968C481.431 282.044 479.964 283.231 478.54 284.432L478.595 284.502ZM488.54 276.75L487.926 275.898C489.448 274.809 491.012 273.719 492.563 272.686L493.149 273.552C491.543 274.515 489.993 275.591 488.484 276.68L488.54 276.75ZM499.058 269.767L498.499 268.873C500.105 267.909 501.753 266.945 503.373 266.079L503.89 267.001C502.214 267.783 500.594 268.747 499.058 269.711V269.767Z" fill="#263238"/>
<path d="M510.232 263.439L509.757 262.504C510.581 262.085 511.419 261.666 512.271 261.26L512.732 262.196L510.232 263.439Z" fill="#263238"/>
<path d="M506.419 244.626L496.544 271.764L517.285 255.562L596.564 226.803L506.419 244.626Z" fill="#FFD285"/>
<path opacity="0.2" d="M506.419 244.626L496.544 271.764L517.285 255.562L596.564 226.803L506.419 244.626Z" fill="#222221"/>
<path d="M519.939 261.889L496.544 271.764L517.285 255.562L519.939 261.889Z" fill="#263238"/>
<path d="M517.285 255.562L596.563 226.803L531.531 290.271L517.285 255.562Z" fill="#FFD285"/>
<path d="M506.419 244.626L473.47 223.353L596.563 226.803L506.419 244.626Z" fill="#FFD285"/>
<path d="M327.163 385.29C327.163 385.29 318.629 461.439 312.776 510.87C311.715 519.795 310.751 527.854 309.983 534.418C308.88 543.302 308.055 549.489 307.678 551.5C307.343 553.218 307.455 560.062 307.525 569.658C307.525 575.063 307.525 581.348 307.525 588.095C307.217 614.144 307.287 648.671 307.357 670.32C307.357 682.653 306.938 690.81 306.938 690.81H247.94C247.94 690.81 247.773 682.877 247.633 670.32C247.256 636.268 247.032 568.261 250.594 532.295C255.539 482.362 271.391 385.29 271.391 385.29H327.163Z" fill="#EB9481"/>
<path d="M206.345 738.075C209.543 739.137 300.833 738.871 304.311 736.679C305.624 735.854 306.364 722.544 306.797 706.453C306.89 702.971 306.965 699.4 307.021 695.74C307.091 691.425 307.147 687.053 307.174 682.807C307.286 663.741 307.021 646.953 307.021 646.953H247.646V682.807V695.74L247.953 706.453C247.953 706.453 213.035 722.194 209.501 725.03C205.968 727.865 203.16 737.084 206.345 738.075Z" fill="#EB9481"/>
<path d="M206.345 738.075C209.543 739.137 300.833 738.871 304.311 736.678C305.624 735.854 306.364 722.544 306.797 706.453C306.89 702.971 306.965 699.4 307.021 695.74C307.091 691.425 307.147 687.053 307.174 682.807H247.646V695.74L247.953 706.453C247.953 706.453 213.035 722.194 209.501 725.03C205.968 727.865 203.16 737.084 206.345 738.075Z" fill="white"/>
<path d="M206.065 738.215C208.146 738.899 299.115 740.408 304.576 736.818C306.169 735.757 306.951 716.258 307.37 695.657H247.646L247.953 706.425C247.953 706.425 212.853 722.25 209.278 725.1C205.702 727.949 202.867 737.084 206.065 738.215Z" fill="#FF9F00"/>
<path d="M207.379 734.542C222.743 734.109 284.856 733.857 300.108 734.611C300.234 734.611 300.234 734.709 300.108 734.709C284.856 735.463 222.757 735.212 207.379 734.793C207.044 734.779 207.044 734.542 207.379 734.542Z" fill="#263238"/>
<path d="M245.719 702.989C251.767 701.83 259.169 702.752 263.876 707.04C264.044 707.208 263.806 707.459 263.611 707.403C257.821 705.558 251.851 704.331 245.803 703.744C245.703 703.755 245.602 703.726 245.524 703.663C245.445 703.6 245.395 703.509 245.384 703.409C245.373 703.309 245.402 703.208 245.464 703.13C245.527 703.051 245.619 703.001 245.719 702.989Z" fill="#263238"/>
<path d="M241.347 705.629C247.409 704.484 254.812 705.392 259.505 709.694C259.687 709.861 259.505 710.113 259.254 710.057C253.444 708.185 247.45 706.944 241.375 706.356C241.302 706.33 241.237 706.282 241.191 706.219C241.144 706.156 241.118 706.08 241.115 706.002C241.112 705.924 241.133 705.846 241.174 705.78C241.215 705.714 241.276 705.661 241.347 705.629Z" fill="#263238"/>
<path d="M236.989 708.283C243.037 707.124 250.454 708.046 255.147 712.334C255.328 712.501 255.077 712.753 254.881 712.697C249.092 710.85 243.122 709.623 237.073 709.037C236.973 709.048 236.873 709.019 236.794 708.957C236.716 708.894 236.665 708.802 236.654 708.702C236.643 708.602 236.672 708.502 236.735 708.423C236.798 708.345 236.889 708.294 236.989 708.283Z" fill="#263238"/>
<path d="M232.618 710.923C238.679 709.778 246.082 710.686 250.775 714.988C250.957 715.155 250.775 715.407 250.524 715.351C244.731 713.497 238.756 712.27 232.701 711.691C232.608 711.687 232.52 711.649 232.452 711.586C232.384 711.522 232.341 711.436 232.331 711.343C232.321 711.25 232.344 711.157 232.397 711.08C232.449 711.003 232.528 710.947 232.618 710.923Z" fill="#263238"/>
<path d="M237.227 697.626C241.515 700.95 247.102 702.291 252.102 704.135C252.217 704.163 252.337 704.164 252.452 704.138C252.567 704.112 252.675 704.06 252.767 703.986C252.859 703.911 252.932 703.817 252.982 703.709C253.031 703.602 253.055 703.485 253.052 703.367C253.076 703.366 253.101 703.36 253.122 703.348C253.144 703.336 253.162 703.319 253.176 703.298C253.19 703.278 253.198 703.254 253.201 703.23C253.204 703.205 253.2 703.18 253.191 703.157C251.336 697.8 248.109 693.023 243.833 689.302C241.291 687.192 236.85 685.726 234.489 689.008C232.129 692.291 234.727 695.699 237.227 697.626ZM235.676 692.765C234.587 686.117 241.724 689.595 243.54 691.229C244.689 692.304 245.762 693.456 246.752 694.679C248.749 697.236 250.614 699.893 252.339 702.64C249.937 701.593 247.465 700.755 245.034 699.847C242.171 698.646 236.277 696.425 235.676 692.765Z" fill="#263238"/>
<path d="M273.388 693.869C271.907 690.098 267.242 690.405 264.267 691.816C259.178 694.341 254.843 698.161 251.697 702.892C251.682 702.912 251.673 702.935 251.669 702.959C251.666 702.984 251.669 703.009 251.677 703.032C251.685 703.056 251.699 703.076 251.717 703.093C251.735 703.11 251.757 703.122 251.78 703.129C251.683 703.59 251.962 704.163 252.507 704.107C257.814 703.576 263.555 703.674 268.541 701.523C271.488 700.28 274.785 697.43 273.388 693.869ZM260.426 701.663C257.828 701.984 255.23 702.179 252.632 702.598C255.009 700.372 257.498 698.269 260.091 696.299C261.359 695.358 262.689 694.504 264.072 693.743C266.223 692.612 274.016 691.047 271.307 697.207C269.812 700.601 263.541 701.271 260.426 701.663Z" fill="#263238"/>
<path d="M327.162 385.29C327.162 385.29 318.628 461.439 312.776 510.87C311.714 519.795 310.75 527.854 309.982 534.418C308.879 543.302 308.055 549.489 307.678 551.5C307.342 553.218 307.454 560.062 307.524 569.658C307.524 575.063 307.524 581.348 307.524 588.095C307.217 614.144 307.286 648.671 307.356 670.32H247.646C247.269 636.268 247.046 568.261 250.607 532.295C255.538 482.362 271.391 385.29 271.391 385.29H327.162Z" fill="#455A64"/>
<path d="M307.468 569.686C307.398 560.062 307.287 553.219 307.622 551.528C309.857 539.754 327.176 385.318 327.176 385.318H279.492L307.468 569.686Z" fill="#263238"/>
<path d="M513.708 551.012C513.708 551.012 511.711 551.822 508.121 553.191C504.993 554.406 500.635 555.984 495.341 557.953L493.274 558.68L492.897 558.819L491.598 559.28C455.283 572.158 383.883 594.394 351.227 583.108C318.572 571.823 272.298 384.675 271.39 385.29H350.543C350.543 385.29 365.264 423.267 352.708 447.165C351.548 449.372 380.824 527.337 398.534 525.2C412.362 523.524 450.925 509.054 475.256 501.567L479.223 500.352L483.651 498.956H483.721L491.263 496.637L496.347 495.073L513.708 551.012Z" fill="#EB9481"/>
<path d="M574.313 575.985C574.383 572.619 547.216 485.463 544.074 482.796C542.901 481.776 529.967 485.002 514.477 489.332C511.125 490.254 507.619 491.092 504.169 492.265C499.839 493.746 458.44 507.238 458.44 507.238L475.466 564.755L508.234 553.582L521.67 549.014L531.81 545.578C531.81 545.578 557.147 574.281 560.89 576.837C564.634 579.393 574.243 579.337 574.313 575.985Z" fill="#EB9481"/>
<path d="M574.313 575.985C574.383 572.619 547.217 485.463 544.074 482.796C542.901 481.776 529.967 485.002 514.477 489.332C511.125 490.254 507.619 491.092 504.169 492.265C499.84 493.746 495.412 494.989 491.264 496.456C496.432 513.482 503.764 538.274 508.234 553.526L521.67 548.958L531.811 545.523C531.811 545.523 557.147 574.225 560.89 576.781C564.634 579.337 574.243 579.337 574.313 575.985Z" fill="white"/>
<path d="M574.48 576.209C574.55 572.829 547.23 485.184 544.074 482.502C542.677 481.259 523.737 486.301 503.946 492.028L521.545 549.084L531.741 545.62C531.741 545.62 557.217 574.505 560.988 577.075C564.759 579.645 574.48 579.589 574.48 576.209Z" fill="#FF9F00"/>
<path d="M570.625 576.055C565.681 561.473 547.132 502.196 543.361 487.419C543.361 487.293 543.361 487.265 543.459 487.419C548.669 501.763 566.729 561.18 570.863 575.999C570.947 576.292 570.723 576.362 570.625 576.055Z" fill="#263238"/>
<path d="M529.171 548.707C526.294 543.274 524.981 535.913 527.775 530.215C527.872 529.991 528.194 530.145 528.194 530.354C528.118 536.453 528.708 542.541 529.953 548.512C529.979 548.615 529.963 548.725 529.908 548.817C529.853 548.908 529.764 548.975 529.66 549C529.556 549.026 529.447 549.01 529.355 548.955C529.263 548.9 529.197 548.811 529.171 548.707Z" fill="#263238"/>
<path d="M532.983 552.101C530.106 546.654 528.793 539.307 531.587 533.608C531.698 533.385 532.006 533.539 532.006 533.748C531.938 539.846 532.528 545.934 533.765 551.906C533.791 552.009 533.775 552.119 533.72 552.211C533.665 552.302 533.576 552.368 533.472 552.394C533.368 552.42 533.259 552.404 533.167 552.349C533.075 552.294 533.009 552.205 532.983 552.101Z" fill="#263238"/>
<path d="M536.769 555.509C533.892 550.062 532.579 542.715 535.373 537.016C535.484 536.793 535.792 536.947 535.792 537.156C535.731 543.254 536.321 549.341 537.552 555.313C537.577 555.417 537.561 555.527 537.506 555.619C537.451 555.71 537.362 555.776 537.258 555.802C537.155 555.828 537.045 555.812 536.953 555.757C536.861 555.702 536.795 555.613 536.769 555.509Z" fill="#263238"/>
<path d="M540.61 558.875C537.733 553.428 536.42 546.081 539.213 540.382C539.325 540.159 539.632 540.313 539.632 540.522C539.571 546.62 540.161 552.707 541.392 558.68C541.418 558.783 541.402 558.893 541.347 558.985C541.292 559.076 541.203 559.143 541.099 559.168C540.995 559.194 540.886 559.178 540.794 559.123C540.702 559.068 540.636 558.979 540.61 558.875Z" fill="#263238"/>
<path d="M528.207 541.793C528.098 541.693 527.966 541.621 527.822 541.584C527.678 541.548 527.527 541.547 527.383 541.584C527.367 541.566 527.348 541.552 527.326 541.542C527.305 541.532 527.281 541.527 527.258 541.527C527.234 541.527 527.21 541.532 527.189 541.542C527.167 541.552 527.148 541.566 527.132 541.584L526.699 541.905H526.615L526.447 542.031C526.233 542.189 526.024 542.356 525.819 542.533C524.063 543.969 522.462 545.584 521.042 547.352C520.386 548.162 519.757 549.014 519.184 549.88C518.197 551.357 517.35 552.924 516.656 554.559C515.385 557.604 515.26 562.269 519.129 563.568C522.997 564.867 525.442 561.375 526.559 558.414C527.755 554.679 528.322 550.771 528.235 546.849C528.235 545.341 528.305 543.846 528.389 542.38C528.421 542.275 528.421 542.163 528.389 542.058C528.356 541.954 528.293 541.861 528.207 541.793ZM526.503 547.38C526.503 548.33 526.378 549.266 526.308 550.174C526.07 553.288 525.693 559.587 522.369 561.236C516.335 564.239 517.55 556.389 518.584 554.182C519.273 552.762 520.057 551.39 520.93 550.076C521.168 549.699 521.419 549.335 521.671 548.972C523.193 546.807 524.897 544.782 526.559 542.743L526.797 542.436C526.797 542.436 526.797 542.533 526.797 542.575C526.79 542.668 526.79 542.762 526.797 542.855C526.643 544.377 526.545 545.886 526.461 547.394L526.503 547.38Z" fill="#263238"/>
<path d="M528.234 541.849C527.564 540.229 526.922 538.539 526.251 536.863C525.058 533.429 523.308 530.215 521.069 527.351C519.365 525.34 516.53 523.412 513.918 524.194C513.341 524.359 512.804 524.639 512.34 525.019C509.169 527.533 510.831 531.904 513.066 534.335C514.668 536.056 516.474 537.575 518.443 538.86C520.743 540.409 523.23 541.657 525.846 542.575C526.111 542.673 526.363 542.757 526.628 542.827L526.866 542.897H526.963L527.327 543.008C527.352 543.017 527.378 543.02 527.404 543.017C527.431 543.013 527.456 543.003 527.477 542.988C527.499 542.973 527.517 542.954 527.53 542.93C527.542 542.907 527.549 542.881 527.55 542.855C527.668 542.851 527.784 542.819 527.888 542.761C527.992 542.704 528.08 542.623 528.147 542.525C528.214 542.427 528.256 542.315 528.272 542.198C528.287 542.08 528.274 541.961 528.234 541.849ZM526.447 542.017C523.725 540.465 521.087 538.772 518.541 536.947L517.619 536.234C516.681 535.505 515.785 534.721 514.938 533.888C513.387 532.337 510.133 526.485 514.449 525.954C515.001 525.885 515.559 525.885 516.111 525.954C519.784 526.373 522.284 532.17 523.569 535.019C524.603 537.31 525.511 539.628 526.614 541.877C526.66 541.987 526.711 542.094 526.768 542.198L526.447 542.017Z" fill="#263238"/>
<path d="M495.341 557.953L493.274 558.68L492.897 558.819L491.598 559.28C455.283 572.158 383.883 594.394 351.227 583.108C318.572 571.823 272.298 384.675 271.39 385.29H350.543C350.543 385.29 365.264 423.267 352.708 447.165C351.548 449.372 380.824 527.337 398.534 525.2C412.362 523.524 450.925 509.054 475.256 501.567L479.223 500.352L495.341 557.953Z" fill="#455A64"/>
<path d="M269.855 312.688C269.86 312.881 269.936 313.065 270.067 313.206C270.198 313.347 270.375 313.436 270.567 313.456L273.654 313.233C275.469 305.174 277.676 298.651 277.187 301.137C276.476 305.053 276.311 309.049 276.698 313.009L282.788 312.465C283.515 298.609 285.344 288.162 285.582 291.276C286.35 303.847 287.523 307.786 288.864 311.948C303.571 310.551 322.832 308.652 336.73 306.906C337.414 299.196 337.833 290.913 338.127 291.444C340.543 295.411 341.8 301.459 342.428 306.166C346.842 305.579 350.362 305.02 352.499 304.559C352.499 304.559 352.764 298.134 352.652 296.053C352.406 290.713 351.229 285.457 349.175 280.522C346.911 275.689 344.164 271.099 340.976 266.82L340.892 266.722C338.912 263.849 337.271 260.755 336.004 257.504C335.124 255.118 334.437 252.666 333.95 250.171C332.176 241.036 326.352 233.731 317.958 232.432C300.806 219.149 286.294 227.795 283.123 240.268C282.816 241.483 282.551 242.866 282.313 244.374C281.405 249.961 280.917 257.057 280.218 262.532C279.995 264.698 279.64 266.848 279.157 268.971C276.377 279.223 268.22 285.941 269.855 312.688Z" fill="#263238"/>
<path d="M321.673 234.36C324.477 235.334 326.98 237.018 328.938 239.248C330.897 241.478 332.243 244.178 332.847 247.084C333.564 250.939 334.751 254.691 336.381 258.258C338.368 261.676 340.843 264.786 343.727 267.49C348.085 271.946 351.312 276.541 352.708 283.064C354.105 289.586 354.79 297.659 353.449 304.224C354.195 296.865 353.526 289.431 351.479 282.323C349.426 275.186 344.999 271.149 340.375 266.121C336.652 262.161 334.024 257.299 332.749 252.014C331.939 248.746 331.562 245.268 329.956 242.237C328.014 238.704 324.746 236.748 321.575 235.044C320.989 234.863 321.282 234.262 321.673 234.36Z" fill="#263238"/>
<path d="M271.39 280.633C274.491 274.879 277.843 269.865 279.24 263.062C280.525 256.861 280.888 250.492 282.201 244.263C282.201 244.165 282.369 244.179 282.341 244.263C280.497 255.185 281.195 265.87 275.958 275.577C273.164 280.857 270.217 285.773 268.667 291.849C267.11 298.216 266.694 304.808 267.438 311.319C267.438 311.557 267.186 311.571 267.13 311.319C264.913 300.907 266.42 290.047 271.39 280.633Z" fill="#263238"/>
<path d="M295.512 309.797C283.151 321.795 237.422 344.101 221.108 338.374C210.465 334.645 179.947 304.853 173.941 296.025C166.957 285.717 188.816 265.744 194.975 269.725C202.671 274.711 226.527 300.732 233.776 304.867C237.967 307.255 267.186 297.687 295.316 291.849C306.225 289.572 302.9 302.702 295.512 309.797Z" fill="#EB9481"/>
<path d="M195.381 280.48C195.381 280.48 177 267.504 175.827 267.183C174.653 266.861 174.192 268.44 173.746 269.655C173.641 270.432 173.613 271.218 173.662 272.001C173.662 275.703 173.662 282.239 168.983 281.443C162.921 280.396 163.116 265.702 163.508 263.412C163.817 262.423 164.336 261.513 165.03 260.744C167.363 257.853 172.014 254.235 176.413 254.919C182.503 255.855 188.146 259.571 193.272 262.448L195.381 280.48Z" fill="#EB9481"/>
<path d="M195.381 280.48C195.381 280.48 177 267.504 175.827 267.183C174.654 266.861 174.193 268.44 173.746 269.655C173.641 270.432 173.613 271.218 173.662 272.001C170.575 268.007 167.181 263.621 165.03 260.744C167.363 257.853 172.014 254.235 176.414 254.919C182.503 255.855 188.146 259.571 193.272 262.448L195.381 280.48Z" fill="#263238"/>
<path d="M186.722 310.328C185.953 309.252 178.006 301.137 172.014 294.964C172.852 288.413 172.992 275.158 173.034 271.652C173.76 267.755 173.034 259.082 172.698 259.082C171.972 259.082 169.402 259.082 166.274 258.774C162.083 258.397 157.083 257.587 154.038 255.827C153.287 255.5 152.639 254.973 152.166 254.303C151.693 253.633 151.413 252.846 151.356 252.028C151.356 249.235 157.67 248.942 165.1 248.034C175.213 246.791 187.713 245.813 191.736 249.542C197.672 255.129 200.312 266.987 201.513 270.493C202.714 273.999 210.089 283.427 210.089 283.427C204.628 302.38 187.741 311.752 186.722 310.328Z" fill="#EB9481"/>
<path d="M134.707 247.95C134.707 247.95 148.032 252.503 162.027 256.61C176.022 260.716 204.264 275.633 204.418 276.834C204.571 278.035 173.326 268.831 160.099 263.16C146.872 257.489 133.855 250.911 133.855 250.911L134.707 247.95Z" fill="#455A64"/>
<path d="M134.47 247.698L143.786 250.422L141.83 255.297L133.254 251.051L134.47 247.698Z" fill="#EBEBEB"/>
<path d="M134.511 247.698C133.775 246.73 132.818 245.951 131.72 245.426C130.622 244.902 129.415 244.646 128.198 244.682C127.179 244.754 126.156 244.615 125.195 244.271C124.233 243.927 123.353 243.387 122.611 242.684C122.611 242.684 125.251 251.623 133.226 251.065L134.511 247.698Z" fill="#455A64"/>
<path d="M122.36 242.419C122.919 242.419 124.455 244.276 126.55 244.458C128.645 244.64 127.779 250.506 125.824 248.564C123.589 246.372 121.355 242.363 122.36 242.419Z" fill="#FF9F00"/>
<path d="M172.013 295.033C169.96 292.952 168.117 291.137 166.832 289.921C162.832 286.407 160.333 281.493 159.848 276.192C159.205 271.513 148.898 261.707 156.649 260.981C164.401 260.255 170.519 274.515 172.321 273.468C172.656 273.272 172.907 272.63 173.075 271.722C172.991 275.228 172.852 288.483 172.013 295.033Z" fill="#EB9481"/>
<path d="M173.299 269.18C173.299 268.998 173.173 269.026 173.145 269.18C173.145 269.823 172.712 272.714 172.056 272.714C170.882 272.714 166.818 266.931 164.681 264.808C164.555 264.697 164.388 264.808 164.513 264.948C165.114 265.479 166.916 268.007 167.377 268.607C168.257 269.781 170.687 273.524 172.153 273.524C173.131 273.608 173.369 269.92 173.299 269.18Z" fill="#263238"/>
<path d="M253.764 299.405L259.951 318.75C262.242 326.041 264.365 332.717 264.505 333.485C275.669 327.33 286.29 320.237 296.252 312.283C309.689 301.374 308.278 292.226 300.442 290.815C299.251 290.621 298.04 290.583 296.839 290.703C286.168 291.695 253.764 299.405 253.764 299.405Z" fill="#FF9F00"/>
<path d="M275.958 301.514H274.869C274.598 301.522 274.329 301.475 274.076 301.376C273.824 301.278 273.594 301.13 273.4 300.941C273.206 300.752 273.052 300.527 272.947 300.277C272.842 300.028 272.787 299.76 272.788 299.489C272.77 299.131 272.615 298.793 272.355 298.546C272.095 298.299 271.749 298.162 271.391 298.162H270.246V297.464H271.391C271.658 297.462 271.923 297.513 272.17 297.614C272.418 297.715 272.642 297.864 272.832 298.052C273.021 298.24 273.172 298.464 273.275 298.711C273.377 298.957 273.43 299.222 273.43 299.489C273.418 299.676 273.445 299.863 273.511 300.038C273.577 300.213 273.68 300.372 273.812 300.504C273.944 300.636 274.103 300.739 274.278 300.805C274.453 300.87 274.64 300.898 274.827 300.886H275.916L275.958 301.514ZM264.016 313.722C264.274 313.486 264.61 313.355 264.959 313.355C265.308 313.355 265.644 313.486 265.902 313.722C266.287 314.091 266.8 314.298 267.333 314.298C267.867 314.298 268.38 314.091 268.765 313.722L269.575 312.898L269.086 312.409L268.262 313.219C268.006 313.45 267.672 313.579 267.326 313.579C266.981 313.579 266.647 313.45 266.391 313.219C266.012 312.863 265.513 312.665 264.994 312.665C264.475 312.665 263.975 312.863 263.597 313.219L262.815 314.001L263.318 314.49L264.016 313.722Z" fill="white"/>
<path d="M259.952 318.75C262.242 326.041 264.365 332.717 264.505 333.485C275.669 327.331 286.29 320.238 296.253 312.283C309.689 301.375 308.278 292.226 300.443 290.815L259.952 318.75Z" fill="#263238"/>
<path d="M374.12 497.168H250.44L251.152 492.726L266.642 395.821L266.851 394.55L274.128 348.989C274.128 348.989 267.731 339.31 269.673 330.566C270.651 326.139 280.847 308.456 286.266 301.235C287.992 298.82 289.912 296.55 292.007 294.447C297.957 288.86 305.974 288.148 311.686 288.986C312.694 289.142 313.685 289.39 314.647 289.726C322.86 292.519 332.959 302.157 338.392 316.711C340.277 321.767 342.149 327.661 343.979 334.184C344.063 334.505 344.146 334.826 344.244 335.148C349.649 354.548 354.817 379.242 359.273 403.475C361.801 417.177 364.106 430.74 366.103 443.101L366.354 444.735C371.145 474.681 374.12 497.168 374.12 497.168Z" fill="#FF9F00"/>
<path d="M312.608 390.612H311.505C310.968 390.612 310.452 390.398 310.073 390.018C309.693 389.639 309.479 389.123 309.479 388.586C309.479 388.216 309.332 387.861 309.07 387.599C308.808 387.337 308.453 387.19 308.083 387.19H306.923V386.505H308.083C308.621 386.509 309.136 386.725 309.516 387.107C309.895 387.489 310.108 388.006 310.108 388.544C310.125 388.891 310.27 389.219 310.515 389.464C310.761 389.709 311.088 389.854 311.435 389.871H312.538L312.608 390.612ZM329.955 451.998H328.866C328.52 451.981 328.192 451.836 327.947 451.59C327.701 451.345 327.556 451.017 327.539 450.671C327.539 450.134 327.326 449.619 326.946 449.239C326.566 448.859 326.051 448.646 325.514 448.646H324.355V449.344H325.514C325.86 449.361 326.188 449.506 326.433 449.751C326.679 449.997 326.824 450.324 326.841 450.671C326.841 451.208 327.054 451.723 327.434 452.103C327.814 452.483 328.329 452.696 328.866 452.696H329.955V451.998ZM351.563 393.335H350.473C350.115 393.317 349.778 393.162 349.531 392.902C349.284 392.642 349.146 392.297 349.147 391.938C349.143 391.4 348.926 390.885 348.544 390.506C348.162 390.126 347.646 389.913 347.107 389.913H345.948V390.612H347.107C347.466 390.611 347.811 390.749 348.071 390.996C348.331 391.243 348.486 391.58 348.504 391.938C348.504 392.476 348.717 392.991 349.097 393.371C349.477 393.75 349.992 393.964 350.529 393.964H351.619L351.563 393.335ZM296.336 361.755H295.233C294.886 361.738 294.559 361.593 294.313 361.348C294.068 361.102 293.923 360.775 293.906 360.428C293.906 359.891 293.693 359.376 293.313 358.996C292.933 358.616 292.418 358.403 291.881 358.403H290.721V359.101H291.881C292.239 359.101 292.584 359.238 292.844 359.486C293.104 359.733 293.26 360.07 293.277 360.428C293.277 360.965 293.491 361.481 293.871 361.86C294.25 362.24 294.766 362.454 295.303 362.454H296.406L296.336 361.755ZM275.958 335.636H274.869C274.51 335.637 274.165 335.499 273.905 335.252C273.645 335.005 273.49 334.668 273.472 334.31C273.472 334.042 273.419 333.778 273.316 333.531C273.214 333.285 273.063 333.061 272.874 332.872C272.684 332.684 272.459 332.535 272.212 332.434C271.965 332.333 271.7 332.282 271.433 332.284H270.287V332.983H271.433C271.803 332.983 272.158 333.13 272.42 333.392C272.682 333.654 272.829 334.009 272.829 334.379C272.829 334.916 273.043 335.432 273.423 335.811C273.802 336.191 274.317 336.405 274.855 336.405H275.944L275.958 335.636ZM330.333 361.043H329.229C328.871 361.043 328.525 360.906 328.265 360.659C328.005 360.412 327.85 360.074 327.832 359.716C327.832 359.179 327.619 358.664 327.239 358.284C326.859 357.904 326.344 357.691 325.807 357.691H324.648V358.389H325.863C326.221 358.407 326.559 358.562 326.806 358.822C327.053 359.082 327.19 359.427 327.19 359.786C327.19 360.323 327.403 360.838 327.783 361.218C328.163 361.598 328.678 361.811 329.215 361.811H330.319L330.333 361.043ZM310.22 325.51H309.102C308.756 325.493 308.428 325.348 308.183 325.103C307.938 324.857 307.792 324.53 307.775 324.183C307.775 323.646 307.562 323.131 307.182 322.751C306.802 322.371 306.287 322.158 305.75 322.158H304.591V322.856H305.75C306.108 322.874 306.446 323.029 306.693 323.289C306.94 323.549 307.078 323.894 307.077 324.253C307.077 324.79 307.291 325.305 307.67 325.685C308.05 326.065 308.565 326.278 309.102 326.278H310.206L310.22 325.51ZM287.984 415.836H286.894C286.536 415.819 286.199 415.663 285.952 415.403C285.705 415.143 285.567 414.798 285.568 414.44C285.564 413.901 285.347 413.386 284.965 413.007C284.583 412.627 284.067 412.414 283.528 412.414H282.369V413.113H283.528C283.899 413.113 284.254 413.26 284.516 413.522C284.778 413.784 284.925 414.139 284.925 414.51C284.925 415.048 285.138 415.565 285.517 415.947C285.897 416.329 286.412 416.545 286.95 416.549H288.04L287.984 415.836ZM316.198 474.052H315.094C314.724 474.052 314.369 473.905 314.107 473.643C313.845 473.381 313.698 473.026 313.698 472.655C313.698 472.118 313.484 471.603 313.104 471.223C312.725 470.843 312.209 470.63 311.672 470.63H310.513V471.328H311.672C312.019 471.345 312.347 471.491 312.592 471.736C312.837 471.981 312.982 472.309 312.999 472.655C312.999 473.192 313.213 473.708 313.592 474.087C313.972 474.467 314.487 474.681 315.024 474.681H316.128L316.198 474.052ZM352.834 493.872H351.73C351.372 493.854 351.035 493.699 350.788 493.439C350.541 493.179 350.403 492.834 350.404 492.475C350.404 491.938 350.19 491.423 349.81 491.043C349.431 490.663 348.915 490.45 348.378 490.45H347.219V491.148H348.378C348.725 491.165 349.053 491.31 349.298 491.555C349.543 491.801 349.688 492.128 349.705 492.475C349.705 493.013 349.918 493.53 350.298 493.912C350.677 494.294 351.192 494.51 351.73 494.514H352.834V493.872ZM275.846 480.086H274.743C274.384 480.086 274.039 479.949 273.779 479.702C273.519 479.455 273.364 479.117 273.346 478.759C273.346 478.222 273.133 477.707 272.753 477.327C272.373 476.947 271.858 476.734 271.321 476.734H270.162V477.432H271.391C271.737 477.449 272.065 477.594 272.31 477.84C272.555 478.085 272.701 478.413 272.718 478.759C272.718 479.296 272.931 479.811 273.311 480.191C273.691 480.571 274.206 480.784 274.743 480.784H275.846V480.086ZM306.812 442.179H305.708C305.362 442.162 305.034 442.017 304.789 441.771C304.544 441.526 304.398 441.198 304.381 440.852C304.381 440.315 304.168 439.8 303.788 439.42C303.408 439.04 302.893 438.827 302.356 438.827H301.197V439.525H302.356C302.715 439.524 303.06 439.662 303.32 439.909C303.58 440.156 303.735 440.494 303.753 440.852C303.753 441.389 303.966 441.904 304.346 442.284C304.726 442.664 305.241 442.877 305.778 442.877H306.882L306.812 442.179ZM273.039 447.766H271.935C271.589 447.749 271.261 447.603 271.016 447.358C270.771 447.113 270.626 446.785 270.609 446.439C270.609 445.9 270.396 445.384 270.016 445.002C269.637 444.62 269.122 444.403 268.583 444.4H267.424V445.098H268.597C268.955 445.116 269.293 445.271 269.54 445.531C269.787 445.791 269.925 446.136 269.924 446.495C269.924 447.032 270.138 447.547 270.517 447.927C270.897 448.307 271.412 448.52 271.949 448.52H273.053L273.039 447.766ZM322.357 416.633H321.254C320.907 416.616 320.58 416.47 320.334 416.225C320.089 415.98 319.944 415.652 319.927 415.306C319.927 414.769 319.714 414.253 319.334 413.874C318.954 413.494 318.439 413.28 317.902 413.28H316.742V413.979H317.902C318.26 413.997 318.598 414.152 318.845 414.412C319.092 414.672 319.229 415.017 319.229 415.376C319.229 415.913 319.442 416.428 319.822 416.808C320.202 417.187 320.717 417.401 321.254 417.401H322.357V416.633ZM365.544 458.534H364.441C364.082 458.516 363.745 458.361 363.498 458.101C363.251 457.841 363.113 457.496 363.114 457.138C363.11 456.602 362.896 456.089 362.517 455.71C362.138 455.331 361.625 455.116 361.089 455.112H359.929V455.811H361.089C361.435 455.828 361.763 455.973 362.008 456.218C362.253 456.464 362.399 456.791 362.415 457.138C362.415 457.676 362.628 458.193 363.008 458.575C363.387 458.957 363.902 459.173 364.441 459.177H365.544V458.534ZM288.319 377.426C288.576 377.195 288.909 377.067 289.255 377.067C289.601 377.067 289.934 377.195 290.191 377.426C290.569 377.782 291.068 377.98 291.587 377.98C292.106 377.98 292.606 377.782 292.984 377.426L293.808 376.602L293.319 376.114L292.495 376.938C292.238 377.173 291.901 377.304 291.552 377.304C291.204 377.304 290.867 377.173 290.61 376.938C290.225 376.568 289.712 376.362 289.178 376.362C288.644 376.362 288.131 376.568 287.746 376.938L286.978 377.706L287.467 378.195L288.319 377.426ZM275.749 356.476C276.005 356.244 276.339 356.116 276.684 356.116C277.03 356.116 277.364 356.244 277.62 356.476C277.807 356.665 278.03 356.816 278.276 356.918C278.522 357.021 278.785 357.074 279.052 357.074C279.318 357.074 279.582 357.021 279.828 356.918C280.073 356.816 280.296 356.665 280.483 356.476L281.308 355.665L280.819 355.163L279.995 355.987C279.738 356.218 279.405 356.347 279.059 356.347C278.713 356.347 278.38 356.218 278.123 355.987C277.736 355.616 277.22 355.409 276.684 355.409C276.148 355.409 275.633 355.616 275.246 355.987L274.478 356.769L274.966 357.258L275.749 356.476ZM339.034 413.965C339.291 413.733 339.624 413.605 339.97 413.605C340.316 413.605 340.649 413.733 340.906 413.965C341.287 414.314 341.785 414.508 342.303 414.508C342.82 414.508 343.318 414.314 343.699 413.965L344.523 413.141L344.035 412.652L343.21 413.476C342.954 413.708 342.62 413.836 342.275 413.836C341.929 413.836 341.595 413.708 341.339 413.476C341.151 413.286 340.926 413.135 340.68 413.032C340.433 412.929 340.168 412.876 339.9 412.876C339.633 412.876 339.368 412.929 339.121 413.032C338.874 413.135 338.65 413.286 338.462 413.476L337.693 414.244L338.182 414.747L339.034 413.965ZM307.37 345.986C307.627 345.755 307.961 345.626 308.306 345.626C308.652 345.626 308.985 345.755 309.242 345.986C309.627 346.356 310.14 346.562 310.674 346.562C311.207 346.562 311.72 346.356 312.105 345.986L312.929 345.162L312.441 344.673L311.616 345.483C311.359 345.719 311.023 345.85 310.674 345.85C310.325 345.85 309.988 345.719 309.731 345.483C309.343 345.12 308.831 344.918 308.299 344.918C307.768 344.918 307.256 345.12 306.868 345.483L306.099 346.265L306.588 346.754L307.37 345.986ZM300.08 302.31C300.337 302.075 300.673 301.944 301.022 301.944C301.371 301.944 301.708 302.075 301.965 302.31C302.347 302.687 302.861 302.898 303.397 302.898C303.933 302.898 304.447 302.687 304.828 302.31L305.652 301.486L305.15 300.998L304.34 301.808C304.082 302.043 303.746 302.174 303.397 302.174C303.048 302.174 302.711 302.043 302.454 301.808C302.076 301.452 301.576 301.254 301.057 301.254C300.538 301.254 300.039 301.452 299.661 301.808L298.878 302.59L299.381 303.079L300.08 302.31ZM285.819 326.125C286.076 325.893 286.409 325.765 286.755 325.765C287.1 325.765 287.434 325.893 287.691 326.125C287.878 326.314 288.101 326.465 288.346 326.568C288.592 326.67 288.856 326.723 289.122 326.723C289.389 326.723 289.652 326.67 289.898 326.568C290.144 326.465 290.367 326.314 290.554 326.125L291.378 325.315L290.889 324.812L290.065 325.636C289.807 325.871 289.471 326.002 289.122 326.002C288.773 326.002 288.437 325.871 288.179 325.636C287.801 325.28 287.302 325.082 286.783 325.082C286.264 325.082 285.764 325.28 285.386 325.636L284.618 326.418L285.107 326.907L285.819 326.125ZM308.446 369.158C308.463 368.811 308.608 368.484 308.853 368.238C309.099 367.993 309.426 367.848 309.773 367.831C310.31 367.831 310.825 367.618 311.205 367.238C311.585 366.858 311.798 366.343 311.798 365.806V364.646H311.1V365.806C311.1 366.164 310.963 366.509 310.716 366.769C310.469 367.029 310.131 367.184 309.773 367.202C309.236 367.202 308.721 367.416 308.341 367.796C307.961 368.175 307.748 368.691 307.748 369.228V370.331H308.446V369.158ZM301.001 424.217C301.019 423.859 301.174 423.521 301.434 423.274C301.694 423.027 302.039 422.889 302.398 422.89C302.935 422.89 303.45 422.677 303.83 422.297C304.21 421.917 304.423 421.402 304.423 420.865V419.705H303.725V420.865C303.725 421.223 303.588 421.568 303.341 421.828C303.094 422.088 302.756 422.243 302.398 422.261C302.132 422.252 301.867 422.295 301.618 422.389C301.368 422.482 301.14 422.623 300.945 422.805C300.751 422.986 300.594 423.205 300.484 423.447C300.373 423.689 300.312 423.951 300.303 424.217V425.32H301.001V424.217ZM339.83 465.309C339.848 464.95 340.003 464.613 340.263 464.366C340.523 464.119 340.868 463.981 341.227 463.982C341.764 463.982 342.279 463.768 342.659 463.388C343.039 463.009 343.252 462.493 343.252 461.956V460.797H342.554V461.928C342.554 462.287 342.417 462.632 342.17 462.892C341.923 463.152 341.585 463.307 341.227 463.325C340.689 463.325 340.172 463.538 339.79 463.917C339.408 464.297 339.192 464.812 339.188 465.35V466.454H339.886L339.83 465.309ZM366.689 492.07C366.706 491.723 366.852 491.396 367.097 491.15C367.342 490.905 367.67 490.76 368.016 490.743C368.553 490.743 369.069 490.53 369.448 490.15C369.828 489.77 370.042 489.255 370.042 488.718V487.558H369.343V488.718C369.325 489.076 369.17 489.413 368.91 489.66C368.65 489.908 368.305 490.045 367.946 490.045C367.409 490.045 366.894 490.258 366.514 490.638C366.135 491.018 365.921 491.533 365.921 492.07V493.173H366.62L366.689 492.07ZM356.912 414.593C356.901 414.413 356.927 414.232 356.988 414.062C357.05 413.892 357.146 413.736 357.271 413.605C357.395 413.474 357.546 413.37 357.712 413.3C357.879 413.229 358.058 413.194 358.239 413.197C358.778 413.193 359.293 412.976 359.672 412.594C360.052 412.212 360.265 411.696 360.264 411.157V409.998H359.566V411.157C359.567 411.516 359.429 411.861 359.182 412.121C358.935 412.381 358.597 412.536 358.239 412.554C357.702 412.554 357.187 412.768 356.807 413.147C356.427 413.527 356.214 414.042 356.214 414.579V415.669H356.912V414.593ZM270.567 426.228C270.585 425.87 270.74 425.532 271 425.285C271.26 425.038 271.605 424.901 271.963 424.901C272.501 424.901 273.016 424.688 273.395 424.308C273.775 423.928 273.989 423.413 273.989 422.876V421.717H273.29V422.82C273.302 423.001 273.276 423.182 273.214 423.352C273.153 423.522 273.057 423.677 272.932 423.808C272.807 423.939 272.657 424.043 272.49 424.114C272.324 424.184 272.144 424.219 271.963 424.217C271.426 424.217 270.911 424.43 270.531 424.81C270.152 425.19 269.938 425.705 269.938 426.242V427.345H270.637L270.567 426.228ZM272.243 376.728C272.26 376.382 272.405 376.054 272.65 375.809C272.895 375.563 273.223 375.418 273.57 375.401C274.104 375.398 274.616 375.183 274.993 374.803C275.369 374.424 275.581 373.911 275.581 373.376V372.217H274.883V373.376C274.883 373.746 274.735 374.102 274.473 374.364C274.212 374.626 273.856 374.773 273.486 374.773C272.949 374.773 272.434 374.986 272.054 375.366C271.674 375.746 271.461 376.261 271.461 376.798V377.901H272.159L272.243 376.728ZM290.302 344.603C290.302 344.245 290.44 343.9 290.687 343.64C290.934 343.38 291.271 343.225 291.629 343.207C292.166 343.207 292.682 342.993 293.061 342.613C293.441 342.234 293.655 341.719 293.655 341.181V340.022H292.956V341.181C292.939 341.528 292.794 341.856 292.549 342.101C292.304 342.346 291.976 342.491 291.629 342.508C291.092 342.508 290.577 342.722 290.197 343.101C289.817 343.481 289.604 343.996 289.604 344.534V345.637H290.302V344.603ZM283.472 312.241C283.49 311.883 283.645 311.545 283.905 311.298C284.165 311.051 284.511 310.914 284.869 310.914C285.408 310.911 285.923 310.694 286.302 310.312C286.682 309.93 286.894 309.414 286.894 308.875V307.716H286.196V308.875C286.197 309.234 286.059 309.579 285.812 309.839C285.565 310.099 285.227 310.254 284.869 310.272C284.332 310.272 283.817 310.485 283.437 310.865C283.057 311.245 282.844 311.76 282.844 312.297V313.387H283.542L283.472 312.241ZM285.456 394.355C285.455 393.996 285.593 393.651 285.84 393.391C286.087 393.131 286.424 392.976 286.783 392.958C287.32 392.958 287.835 392.745 288.215 392.365C288.595 391.985 288.808 391.47 288.808 390.933V389.774H288.151V390.933C288.135 391.279 287.989 391.607 287.744 391.852C287.499 392.098 287.171 392.243 286.825 392.26C286.287 392.26 285.772 392.473 285.392 392.853C285.013 393.233 284.799 393.748 284.799 394.285V395.388H285.498L285.456 394.355ZM328.992 401.045C328.991 400.686 329.129 400.341 329.376 400.081C329.623 399.821 329.96 399.666 330.319 399.648C330.856 399.648 331.371 399.435 331.751 399.055C332.131 398.675 332.344 398.16 332.344 397.623V396.464H331.646V397.679C331.629 398.025 331.483 398.353 331.238 398.598C330.993 398.844 330.665 398.989 330.319 399.006C329.782 399.006 329.266 399.219 328.887 399.599C328.507 399.979 328.293 400.494 328.293 401.031V402.135H328.992V401.045ZM288.752 456.914C288.769 456.568 288.914 456.24 289.159 455.995C289.405 455.749 289.733 455.604 290.079 455.587C290.616 455.587 291.131 455.374 291.511 454.994C291.891 454.614 292.104 454.099 292.104 453.562V452.403H291.406V453.548C291.388 453.906 291.233 454.244 290.973 454.491C290.713 454.738 290.368 454.875 290.009 454.875C289.472 454.875 288.957 455.088 288.577 455.468C288.197 455.848 287.984 456.363 287.984 456.9V458.004H288.682L288.752 456.914ZM257.926 471.706C257.926 471.347 258.063 471.002 258.31 470.742C258.557 470.482 258.895 470.327 259.253 470.309C259.79 470.309 260.305 470.095 260.685 469.716C261.065 469.336 261.278 468.821 261.278 468.284V467.124H260.58V468.284C260.563 468.63 260.418 468.958 260.173 469.203C259.927 469.448 259.6 469.594 259.253 469.61C258.716 469.61 258.201 469.824 257.821 470.204C257.441 470.583 257.228 471.099 257.228 471.636V472.739H257.926V471.706ZM298.194 488.466C298.211 488.12 298.356 487.792 298.601 487.547C298.847 487.302 299.174 487.156 299.521 487.139C300.058 487.139 300.573 486.926 300.953 486.546C301.333 486.166 301.546 485.651 301.546 485.114V483.955H300.848V485.114C300.83 485.472 300.675 485.81 300.415 486.057C300.155 486.304 299.81 486.441 299.451 486.441C298.914 486.441 298.399 486.654 298.019 487.034C297.639 487.414 297.426 487.929 297.426 488.466V489.57H298.124L298.194 488.466ZM343.574 432.765C343.573 432.406 343.711 432.061 343.958 431.801C344.205 431.541 344.542 431.386 344.9 431.368C345.168 431.368 345.432 431.315 345.679 431.213C345.925 431.11 346.149 430.959 346.338 430.77C346.526 430.58 346.675 430.355 346.776 430.108C346.877 429.861 346.928 429.596 346.926 429.329V428.17H346.227V429.329C346.228 429.688 346.09 430.033 345.843 430.293C345.596 430.553 345.259 430.708 344.9 430.726C344.363 430.726 343.848 430.939 343.468 431.319C343.089 431.699 342.875 432.214 342.875 432.751V433.84H343.574V432.765ZM325.053 378.125C325.31 377.889 325.647 377.759 325.996 377.759C326.345 377.759 326.681 377.889 326.939 378.125C327.126 378.314 327.349 378.465 327.594 378.568C327.84 378.671 328.104 378.723 328.37 378.723C328.637 378.723 328.9 378.671 329.146 378.568C329.392 378.465 329.615 378.314 329.802 378.125L330.584 377.343L330.081 376.854L329.313 377.636C329.056 377.872 328.719 378.002 328.37 378.002C328.021 378.002 327.685 377.872 327.427 377.636C327.24 377.446 327.017 377.296 326.772 377.193C326.526 377.09 326.262 377.037 325.996 377.037C325.729 377.037 325.466 377.09 325.22 377.193C324.974 377.296 324.751 377.446 324.564 377.636L323.74 378.446L324.229 378.949L325.053 378.125ZM300.219 403.098C300.477 402.863 300.813 402.732 301.162 402.732C301.511 402.732 301.847 402.863 302.105 403.098C302.486 403.448 302.984 403.642 303.502 403.642C304.019 403.642 304.517 403.448 304.898 403.098L305.666 402.316L305.178 401.827L304.395 402.609C304.139 402.841 303.805 402.969 303.46 402.969C303.114 402.969 302.78 402.841 302.524 402.609C302.337 402.42 302.114 402.269 301.868 402.167C301.622 402.064 301.359 402.011 301.092 402.011C300.826 402.011 300.562 402.064 300.316 402.167C300.071 402.269 299.848 402.42 299.661 402.609L298.836 403.42L299.325 403.922L300.219 403.098ZM283.012 436.983C283.269 436.747 283.605 436.617 283.954 436.617C284.303 436.617 284.64 436.747 284.897 436.983C285.084 437.173 285.307 437.323 285.553 437.426C285.799 437.529 286.062 437.582 286.329 437.582C286.595 437.582 286.859 437.529 287.105 437.426C287.35 437.323 287.573 437.173 287.76 436.983L288.543 436.201L288.04 435.712L287.272 436.494C287.014 436.73 286.678 436.86 286.329 436.86C285.98 436.86 285.643 436.73 285.386 436.494C285.199 436.304 284.976 436.154 284.73 436.051C284.484 435.948 284.221 435.895 283.954 435.895C283.688 435.895 283.424 435.948 283.178 436.051C282.933 436.154 282.71 436.304 282.523 436.494L281.699 437.304L282.201 437.807L283.012 436.983ZM290.456 472.194C290.713 471.963 291.046 471.835 291.392 471.835C291.738 471.835 292.071 471.963 292.328 472.194C292.709 472.544 293.207 472.738 293.724 472.738C294.242 472.738 294.74 472.544 295.121 472.194L295.903 471.412L295.414 470.923L294.632 471.692C294.511 471.817 294.366 471.918 294.205 471.986C294.044 472.054 293.871 472.09 293.696 472.09C293.522 472.09 293.349 472.054 293.188 471.986C293.027 471.918 292.882 471.817 292.761 471.692C292.377 471.315 291.86 471.103 291.322 471.103C290.784 471.103 290.267 471.315 289.883 471.692L289.073 472.516L289.562 473.018L290.456 472.194ZM314.689 492.824C314.947 492.588 315.283 492.458 315.632 492.458C315.981 492.458 316.317 492.588 316.575 492.824C316.961 493.19 317.474 493.395 318.007 493.395C318.539 493.395 319.052 493.19 319.438 492.824L320.22 492.042L319.718 491.553L318.949 492.321C318.692 492.557 318.355 492.687 318.007 492.687C317.658 492.687 317.321 492.557 317.064 492.321C316.682 491.945 316.168 491.734 315.632 491.734C315.096 491.734 314.582 491.945 314.2 492.321L313.376 493.145L313.879 493.634L314.689 492.824ZM323.796 433.519C324.053 433.283 324.39 433.153 324.739 433.153C325.088 433.153 325.424 433.283 325.682 433.519C326.068 433.885 326.58 434.09 327.113 434.09C327.646 434.09 328.158 433.885 328.545 433.519L329.313 432.737L328.824 432.248L328.056 433.016C327.798 433.252 327.462 433.382 327.113 433.382C326.764 433.382 326.428 433.252 326.17 433.016C325.789 432.64 325.275 432.429 324.739 432.429C324.203 432.429 323.689 432.64 323.307 433.016L322.483 433.84L322.986 434.329L323.796 433.519ZM329.955 479.807C330.213 479.571 330.549 479.44 330.898 479.44C331.247 479.44 331.584 479.571 331.841 479.807C332.221 480.186 332.736 480.399 333.273 480.399C333.81 480.399 334.325 480.186 334.704 479.807L335.487 479.024L334.984 478.536L334.216 479.318C333.958 479.553 333.622 479.684 333.273 479.684C332.924 479.684 332.587 479.553 332.33 479.318C331.949 478.968 331.45 478.774 330.933 478.774C330.416 478.774 329.918 478.968 329.536 479.318L328.657 480.086L329.159 480.589L329.955 479.807ZM355.809 476.915C356.066 476.684 356.399 476.555 356.745 476.555C357.09 476.555 357.424 476.684 357.681 476.915C358.066 477.285 358.578 477.491 359.112 477.491C359.646 477.491 360.159 477.285 360.544 476.915L361.326 476.133L360.837 475.644L360.055 476.426C359.798 476.658 359.465 476.786 359.119 476.786C358.773 476.786 358.44 476.658 358.183 476.426C357.995 476.236 357.771 476.086 357.524 475.983C357.277 475.88 357.012 475.827 356.745 475.827C356.477 475.827 356.212 475.88 355.965 475.983C355.718 476.086 355.494 476.236 355.306 476.426L354.496 477.237L354.985 477.739L355.809 476.915ZM357.876 433.519C357.998 433.393 358.145 433.292 358.307 433.224C358.469 433.155 358.643 433.12 358.819 433.12C358.995 433.12 359.169 433.155 359.331 433.224C359.493 433.292 359.639 433.393 359.762 433.519C360.14 433.875 360.639 434.072 361.158 434.072C361.677 434.072 362.177 433.875 362.555 433.519L363.323 432.737L362.834 432.248L362.066 433.016C361.809 433.252 361.472 433.382 361.123 433.382C360.774 433.382 360.438 433.252 360.181 433.016C359.796 432.647 359.283 432.44 358.749 432.44C358.215 432.44 357.702 432.647 357.317 433.016L356.493 433.84L356.982 434.329L357.876 433.519ZM346.702 447.486C346.959 447.255 347.292 447.126 347.638 447.126C347.984 447.126 348.317 447.255 348.574 447.486C348.952 447.842 349.452 448.04 349.971 448.04C350.49 448.04 350.989 447.842 351.367 447.486L352.15 446.704L351.661 446.215L350.878 446.983C350.622 447.215 350.288 447.343 349.943 447.343C349.597 447.343 349.264 447.215 349.007 446.983C348.623 446.606 348.106 446.395 347.568 446.395C347.03 446.395 346.514 446.606 346.13 446.983L345.319 447.808L345.808 448.296L346.702 447.486ZM308.153 458.129C308.41 457.894 308.746 457.763 309.095 457.763C309.444 457.763 309.781 457.894 310.038 458.129C310.42 458.506 310.934 458.716 311.47 458.716C312.006 458.716 312.52 458.506 312.901 458.129L313.684 457.347L313.181 456.858L312.413 457.627C312.155 457.862 311.819 457.993 311.47 457.993C311.121 457.993 310.785 457.862 310.527 457.627C310.139 457.263 309.627 457.061 309.095 457.061C308.564 457.061 308.052 457.263 307.664 457.627L306.84 458.451L307.343 458.939L308.153 458.129ZM272.69 462.976C272.946 462.744 273.28 462.616 273.626 462.616C273.971 462.616 274.305 462.744 274.561 462.976C274.943 463.325 275.441 463.519 275.958 463.519C276.475 463.519 276.974 463.325 277.355 462.976L278.137 462.194L277.648 461.705L276.866 462.487C276.609 462.719 276.276 462.847 275.93 462.847C275.584 462.847 275.251 462.719 274.994 462.487C274.607 462.117 274.092 461.91 273.556 461.91C273.02 461.91 272.504 462.117 272.117 462.487L271.391 463.325L271.88 463.828L272.69 462.976ZM278.724 494.696C278.98 494.464 279.314 494.336 279.659 494.336C280.005 494.336 280.339 494.464 280.595 494.696C280.977 495.072 281.491 495.283 282.027 495.283C282.563 495.283 283.077 495.072 283.458 494.696L284.241 493.913L283.738 493.425L282.97 494.193C282.847 494.319 282.701 494.42 282.539 494.488C282.377 494.557 282.203 494.592 282.027 494.592C281.851 494.592 281.677 494.557 281.515 494.488C281.353 494.42 281.206 494.319 281.084 494.193C280.706 493.837 280.206 493.639 279.687 493.639C279.168 493.639 278.669 493.837 278.291 494.193L277.467 495.017L277.969 495.506L278.724 494.696ZM256.376 490.505C256.633 490.274 256.966 490.146 257.312 490.146C257.657 490.146 257.991 490.274 258.248 490.505C258.626 490.861 259.125 491.059 259.644 491.059C260.163 491.059 260.663 490.861 261.041 490.505L261.823 489.723L261.334 489.234L260.552 490.017C260.295 490.252 259.958 490.383 259.609 490.383C259.26 490.383 258.924 490.252 258.667 490.017C258.479 489.827 258.257 489.676 258.011 489.574C257.765 489.471 257.501 489.418 257.235 489.418C256.969 489.418 256.705 489.471 256.459 489.574C256.213 489.676 255.99 489.827 255.803 490.017L254.993 490.827L255.482 491.33L256.376 490.505ZM269.868 403.825C270.125 403.593 270.458 403.465 270.804 403.465C271.15 403.465 271.483 403.593 271.74 403.825C272.121 404.174 272.62 404.368 273.137 404.368C273.654 404.368 274.152 404.174 274.533 403.825L275.316 403.042L274.827 402.554L274.045 403.336C273.787 403.571 273.451 403.702 273.102 403.702C272.753 403.702 272.416 403.571 272.159 403.336C271.972 403.146 271.749 402.996 271.503 402.893C271.257 402.79 270.994 402.737 270.727 402.737C270.461 402.737 270.197 402.79 269.951 402.893C269.706 402.996 269.483 403.146 269.296 403.336L268.486 404.146L268.974 404.649L269.868 403.825Z" fill="white"/>
<path d="M374.119 497.168H353.713L314.688 289.782C322.901 292.575 333 302.213 338.433 316.767C340.318 321.823 342.19 327.717 344.02 334.24C344.104 334.561 344.187 334.882 344.285 335.203C349.69 354.604 354.858 379.298 359.314 403.531C361.842 417.233 364.147 430.795 366.144 443.156L366.395 444.791C371.144 474.681 374.119 497.168 374.119 497.168Z" fill="#263238"/>
<path d="M385.224 455.685C387.752 461.384 386.369 470.965 390.978 470.42C395.071 469.932 395.392 463.199 395.392 463.199C395.392 463.199 397.487 470.909 401.747 469.122C406.007 467.334 404.848 459.889 404.848 459.889C404.848 459.889 406.314 466.384 410.435 464.289C414.555 462.194 414.737 455.699 414.737 455.699C414.737 455.699 416.427 457.263 418.676 454.484C421.902 450.503 419.444 439.72 416.818 434.385C414.192 429.049 400.658 411.479 398.493 408.853L364.133 425.376C364.133 425.376 364.427 437.011 365.293 442.891C366.159 448.771 374.385 467.348 379.134 465.616C383.883 463.884 377.849 450.866 377.067 447.347C376.285 443.827 376.969 443.059 378.548 444.372C379.623 445.168 384.107 453.157 385.224 455.685Z" fill="#EB9481"/>
<path d="M395.253 462.878C395.015 453.45 393.297 449.372 388.157 441.648C388.06 441.494 388.255 441.313 388.381 441.466C394.093 448.562 396.999 453.381 395.7 462.892C395.7 463.325 395.253 463.325 395.253 462.878Z" fill="#263238"/>
<path d="M404.765 460.28C403.675 450.503 401.846 446.075 397.055 437.597C396.985 437.472 397.181 437.346 397.264 437.458C402.656 445.391 405.449 450.252 405.254 460.155C405.24 460.601 404.821 460.727 404.765 460.28Z" fill="#263238"/>
<path d="M414.639 455.601C412.907 446.229 411.106 441.271 405.407 433.631C405.386 433.594 405.378 433.552 405.384 433.51C405.39 433.469 405.411 433.431 405.442 433.403C405.474 433.375 405.514 433.359 405.556 433.357C405.598 433.355 405.639 433.368 405.672 433.393C412.237 440.628 414.542 446.802 414.919 455.517C414.947 456.118 414.751 456.188 414.639 455.601Z" fill="#263238"/>
<path d="M327.26 299.489C353.797 327.046 394.694 400.361 399.484 410.375C402.739 417.177 367.206 435.153 365.684 430.209C363.742 423.868 333.433 352.118 325.178 322.661C320.611 306.361 321.784 293.79 327.26 299.489Z" fill="#EB9481"/>
<path d="M315.22 302.855C316.994 312.912 328.964 346.447 328.964 346.447L351.004 341.153L351.395 341.07L365.432 337.717C365.432 337.717 338.517 306.305 325.905 296.626C313.292 286.946 313.292 291.528 315.22 302.855Z" fill="#FF9F00"/>
<path d="M350.864 336.223H349.761C349.224 336.223 348.708 336.01 348.329 335.63C347.949 335.25 347.735 334.735 347.735 334.198C347.735 333.827 347.588 333.472 347.326 333.21C347.064 332.948 346.709 332.801 346.339 332.801H345.179V332.103H346.339C346.876 332.103 347.391 332.316 347.771 332.696C348.151 333.076 348.364 333.591 348.364 334.128C348.381 334.474 348.526 334.802 348.771 335.047C349.017 335.293 349.344 335.438 349.691 335.455H350.794L350.864 336.223ZM332.357 318.484C332.615 318.249 332.951 318.118 333.3 318.118C333.649 318.118 333.986 318.249 334.243 318.484C334.628 318.854 335.141 319.06 335.675 319.06C336.208 319.06 336.721 318.854 337.106 318.484L337.93 317.66L337.428 317.172L336.617 317.996C336.36 318.231 336.024 318.362 335.675 318.362C335.326 318.362 334.989 318.231 334.732 317.996C334.545 317.806 334.322 317.655 334.076 317.553C333.83 317.45 333.567 317.397 333.3 317.397C333.034 317.397 332.77 317.45 332.524 317.553C332.279 317.655 332.056 317.806 331.869 317.996L331.086 318.764L331.589 319.267L332.357 318.484ZM326.198 334.226C326.215 333.879 326.36 333.551 326.605 333.306C326.851 333.061 327.178 332.916 327.525 332.899C328.062 332.899 328.577 332.685 328.957 332.305C329.337 331.926 329.55 331.411 329.55 330.873V329.714H328.852V330.873C328.852 331.232 328.715 331.577 328.468 331.837C328.221 332.097 327.883 332.252 327.525 332.27C326.988 332.27 326.473 332.484 326.093 332.863C325.713 333.243 325.499 333.758 325.499 334.295V335.399H326.198V334.226ZM318.209 309.336C318.206 309.155 318.241 308.976 318.312 308.809C318.382 308.642 318.486 308.492 318.617 308.367C318.748 308.243 318.904 308.147 319.074 308.085C319.244 308.023 319.425 307.997 319.605 308.009C320.142 308.009 320.658 307.796 321.037 307.416C321.417 307.036 321.631 306.521 321.631 305.984V304.824H320.932V305.984C320.933 306.342 320.795 306.687 320.548 306.947C320.301 307.207 319.964 307.363 319.605 307.38C319.068 307.38 318.553 307.594 318.173 307.974C317.793 308.353 317.58 308.869 317.58 309.406V310.495H318.278L318.209 309.336Z" fill="white"/>
<path d="M327.134 297.603C327.413 296.961 309.605 312.967 294.925 310.174C287.592 308.777 286.21 292.422 287.076 292.254C299.423 289.754 311.141 283.022 327.134 297.603Z" fill="#EB9481"/>
<path d="M313.153 291.723C312.608 293.12 304.353 301.5 297.789 300.271C295.652 299.852 297.398 288.078 297.398 288.078L297.328 287.17L296.35 274.599L311.993 267.462L314.228 266.54C314.228 266.54 314.228 270.004 314.228 274.306V274.921C314.228 275.172 314.228 275.395 314.228 275.633C314.228 276.275 314.228 276.932 314.228 277.588C314.228 278.245 314.228 278.566 314.228 279.097V280.647C314.127 284.36 313.767 288.06 313.153 291.723Z" fill="#EB9481"/>
<path d="M314.27 274.306C312.548 277.553 310.139 280.387 307.211 282.608C304.283 284.83 300.905 286.386 297.314 287.17L296.336 274.599L311.98 267.462L314.215 266.54C314.215 266.54 314.256 270.004 314.27 274.306Z" fill="#263238"/>
<path d="M282.565 252.727C277.439 274.278 289.758 279.781 294.409 280.871C298.599 281.876 313.125 284.74 320.444 263.845C327.763 242.95 319.383 233.745 309.843 230.952C300.303 228.158 287.663 231.175 282.565 252.727Z" fill="#EB9481"/>
<path d="M287.285 250.394C287.797 250.422 288.31 250.422 288.821 250.394C289.36 250.446 289.9 250.319 290.358 250.031C290.486 249.913 290.572 249.756 290.602 249.584C290.632 249.413 290.605 249.236 290.525 249.081C290.318 248.8 290.038 248.581 289.716 248.446C289.394 248.31 289.042 248.265 288.696 248.313C287.983 248.304 287.292 248.558 286.754 249.025C286.658 249.14 286.594 249.279 286.57 249.427C286.545 249.575 286.561 249.727 286.615 249.867C286.669 250.006 286.76 250.129 286.878 250.222C286.996 250.315 287.136 250.374 287.285 250.394Z" fill="#263238"/>
<path d="M302.341 253.355C301.865 253.197 301.399 253.011 300.945 252.797C300.4 252.678 299.909 252.384 299.548 251.959C299.466 251.804 299.438 251.627 299.468 251.455C299.498 251.283 299.586 251.126 299.716 251.009C300.001 250.811 300.335 250.694 300.681 250.67C301.028 250.645 301.374 250.714 301.685 250.869C302.367 251.081 302.941 251.546 303.291 252.168C303.362 252.311 303.391 252.472 303.374 252.63C303.357 252.789 303.295 252.94 303.195 253.065C303.095 253.19 302.962 253.283 302.811 253.335C302.659 253.386 302.497 253.393 302.341 253.355Z" fill="#263238"/>
<path d="M298.515 258.383C298.515 258.383 298.613 258.481 298.599 258.537C298.277 260.017 298.152 261.749 299.395 262.504C299.395 262.504 299.395 262.601 299.395 262.573C297.775 262.043 297.928 259.724 298.515 258.383Z" fill="#263238"/>
<path d="M300.136 257.084C302.552 257.364 301.826 262.168 299.591 261.931C297.356 261.693 298.111 256.861 300.136 257.084Z" fill="#263238"/>
<path d="M301.043 257.49C301.421 257.825 301.756 258.37 302.259 258.495C302.761 258.621 303.362 258.202 303.809 257.769C303.697 258.691 303.194 259.585 302.189 259.571C301.183 259.557 300.792 258.649 300.652 257.685C300.722 257.587 300.89 257.35 301.043 257.49Z" fill="#263238"/>
<path d="M289.269 256.316C289.269 256.316 289.143 256.316 289.143 256.428C288.976 257.936 288.529 259.626 287.118 259.92V260.004C288.794 260.017 289.353 257.755 289.269 256.316Z" fill="#263238"/>
<path d="M288.152 254.57C285.763 254.039 284.897 258.76 287.104 259.319C289.311 259.878 290.149 255.003 288.152 254.57Z" fill="#263238"/>
<path d="M287.104 254.696C286.685 254.891 286.224 255.283 285.707 255.227C285.19 255.171 284.883 254.584 284.632 254.026C284.632 254.026 284.562 254.026 284.548 254.026C284.366 254.947 284.548 255.953 285.344 256.288C286.14 256.623 286.853 255.911 287.23 255.045C287.355 254.905 287.272 254.626 287.104 254.696Z" fill="#263238"/>
<path d="M290.721 263.342C290.721 263.342 290.051 265.507 289.883 266.554C289.883 266.652 290.107 266.75 290.47 266.82C291.344 267.13 292.286 267.192 293.193 267C294.101 266.807 294.937 266.368 295.61 265.73C295.694 265.646 295.61 265.521 295.47 265.563C293.987 266.265 292.315 266.466 290.707 266.135C290.707 265.828 291.978 262.448 291.811 262.406C290.984 262.35 290.153 262.402 289.339 262.56C290.596 257.992 292.579 253.662 293.752 249.095C293.767 249.06 293.767 249.02 293.753 248.985C293.738 248.95 293.711 248.921 293.675 248.907C293.64 248.892 293.601 248.891 293.565 248.906C293.53 248.92 293.502 248.948 293.487 248.983C291.238 253.567 289.45 258.362 288.151 263.3C287.984 263.886 290.274 263.453 290.721 263.342Z" fill="#263238"/>
<path d="M290.68 266.037C291.077 267.019 291.716 267.884 292.537 268.552C293.005 268.895 293.564 269.089 294.144 269.11C295.401 269.11 295.736 268.063 295.778 267.071C295.798 266.546 295.756 266.021 295.652 265.507C294.094 266.211 292.351 266.397 290.68 266.037Z" fill="#263238"/>
<path d="M292.537 268.551C293.004 268.895 293.564 269.089 294.143 269.11C295.4 269.11 295.736 268.063 295.778 267.071C295.15 266.918 294.488 266.981 293.901 267.249C293.313 267.518 292.832 267.977 292.537 268.551Z" fill="#FF9BBC"/>
<path d="M320.277 263.914C317.804 263.356 312.427 255.408 314.215 243.299C314.215 243.299 313.363 254.277 313.907 256.009C314.452 257.741 310.905 251.525 312.217 241.748C308.788 243.44 305.133 244.63 301.365 245.282C296.56 245.813 293.753 245.282 293.473 244.919C293.194 244.556 300.317 243.522 302.496 241.706C302.496 241.706 289.325 245.38 283.612 244.877C282.956 244.877 284.395 231.273 294.046 227.013C303.697 222.753 316.505 231.203 319.62 235.393C319.62 235.393 323.88 236.79 327.567 243.969C331.255 251.148 322.902 264.529 320.277 263.914Z" fill="#263238"/>
<path d="M316.602 264.683C316.602 264.683 322.399 258.551 325.248 260.716C328.097 262.881 323.041 272.253 319.186 273.077C318.701 273.215 318.193 273.254 317.692 273.191C317.191 273.128 316.709 272.964 316.273 272.71C315.837 272.455 315.457 272.115 315.156 271.71C314.855 271.306 314.639 270.844 314.521 270.353L316.602 264.683Z" fill="#EB9481"/>
<path d="M323.726 263.37C323.726 263.37 323.726 263.454 323.726 263.468C321.017 264.124 319.313 266.261 318.014 268.607C318.2 268.373 318.434 268.182 318.701 268.048C318.968 267.913 319.26 267.838 319.559 267.827C319.858 267.816 320.155 267.871 320.431 267.986C320.707 268.102 320.954 268.275 321.156 268.496C321.17 268.509 321.178 268.526 321.181 268.545C321.183 268.564 321.179 268.582 321.169 268.599C321.16 268.615 321.145 268.627 321.127 268.634C321.11 268.64 321.09 268.641 321.072 268.635C320.647 268.419 320.163 268.343 319.691 268.419C319.22 268.494 318.784 268.716 318.447 269.054C317.876 269.61 317.37 270.229 316.938 270.898C316.785 271.108 316.393 270.898 316.519 270.675C316.98 267.364 320.179 263.174 323.726 263.37Z" fill="#263238"/>
<path opacity="0.5" d="M127.653 246.902C120.208 265.06 99.7183 338.304 113.113 387.846C124.845 431.047 152.096 453.646 164.457 460.965C182.614 471.719 201.987 478.549 201.204 482.642C200.422 486.734 181.343 477.879 180.477 479.457C179.611 481.035 221.974 521.806 297.299 530.13C413.716 542.994 482.086 501.134 492.143 499.333C502.199 497.531 454.166 555.565 418.898 569.169C410.783 572.284 440.324 564.294 460.381 552.283C467.909 547.771 447.168 608.585 377.876 623.627C364.552 626.519 393.338 626.351 403.604 625.136C413.87 623.921 373.952 652.679 270.161 644.411C189.402 637.916 114.16 574.896 83.2509 505.408C79.773 497.587 72.6078 502.699 70.3172 497.168C65.4286 485.365 67.6913 462.543 65.3029 458.059C62.9145 453.576 55.0789 458.059 52.7324 446.103C50.3859 434.147 51.6429 398.279 70.9876 340.762C73.2782 333.946 70.1216 336.251 65.9873 342.341C61.853 348.43 56.9644 353.85 52.3552 353.626C47.746 353.403 50.1903 336.488 69.6886 305.355C103.112 251.861 134.413 230.491 127.653 246.902Z" fill="#FF9F00"/>
<path opacity="0.5" d="M207.28 489.779C207.476 484.08 229.488 486.888 227.491 494.528C225.493 502.168 207.015 497.517 207.28 489.779Z" fill="#FF9F00"/>
<path opacity="0.5" d="M412.781 623.236C414.177 628.572 433.368 624.856 431.846 617.649C430.324 610.442 411.161 616.811 412.781 623.236Z" fill="#FF9F00"/>
<path opacity="0.5" d="M47.8299 360.051C44.1565 359.59 41.6424 367.495 46.056 368.962C50.4697 370.429 52.6346 360.679 47.8299 360.051Z" fill="#FF9F00"/>
<path opacity="0.5" d="M497.744 495.743C500.538 499.333 519.757 487.544 511.781 481.957C506.222 478.046 494.979 492.153 497.744 495.743Z" fill="#FF9F00"/>
<path d="M329.83 601.573L322.203 602.984L320.499 611.029L318.795 602.984L311.155 601.573L318.753 599.715L320.499 592.117L322.231 599.715L329.83 601.573Z" fill="#FEFEFE"/>
<path d="M146.872 485.128L139.246 486.539L137.542 494.584L135.838 486.539L128.198 485.128L135.796 483.27L137.542 475.672L139.274 483.27L146.872 485.128Z" fill="#FEFEFE"/>
<path d="M108.155 273.202L100.529 274.613L98.8248 282.658L97.1208 274.613L89.4946 273.202L97.0789 271.345L98.8248 263.747L100.557 271.345L108.155 273.202Z" fill="#FEFEFE"/>
<path d="M473.719 519.404L469.445 520.2L468.495 524.697L467.546 520.2L463.286 519.404L467.532 518.37L468.495 514.124L469.473 518.37L473.719 519.404Z" fill="#FEFEFE"/>
<path d="M238.861 542.98L234.601 543.776L233.651 548.26L232.701 543.776L228.441 542.98L232.673 541.947L233.651 537.701L234.629 541.947L238.861 542.98Z" fill="#FEFEFE"/>
<path d="M420.253 597.397L415.993 598.193L415.044 602.69L414.08 598.193L409.82 597.397L414.066 596.363L415.044 592.117L416.007 596.363L420.253 597.397Z" fill="#FEFEFE"/>
<path d="M283.542 629.913L279.282 630.695L278.318 635.192L277.368 630.695L273.108 629.913L277.354 628.865L278.318 624.619L279.296 628.865L283.542 629.913Z" fill="#FEFEFE"/>
<path d="M118.882 519.404L114.608 520.2L113.658 524.697L112.708 520.2L108.448 519.404L112.694 518.37L113.658 514.124L114.636 518.37L118.882 519.404Z" fill="#FEFEFE"/>
<path d="M113.658 393.405L109.398 394.187L108.448 398.685L107.499 394.187L103.225 393.405L107.471 392.357L108.448 388.111L109.412 392.357L113.658 393.405Z" fill="#FEFEFE"/>
<path d="M343.405 553.958C343.1 553.991 342.818 554.135 342.613 554.363C342.407 554.592 342.294 554.888 342.294 555.195C342.294 555.501 342.407 555.798 342.613 556.026C342.818 556.254 343.1 556.398 343.405 556.431C343.711 556.398 343.993 556.254 344.198 556.026C344.403 555.798 344.517 555.501 344.517 555.195C344.517 554.888 344.403 554.592 344.198 554.363C343.993 554.135 343.711 553.991 343.405 553.958Z" fill="#FEFEFE"/>
<path d="M81.4357 321.25C81.1305 321.282 80.8482 321.426 80.643 321.655C80.4377 321.883 80.3242 322.179 80.3242 322.486C80.3242 322.793 80.4377 323.089 80.643 323.317C80.8482 323.545 81.1305 323.689 81.4357 323.722C81.7409 323.689 82.0233 323.545 82.2285 323.317C82.4337 323.089 82.5472 322.793 82.5472 322.486C82.5472 322.179 82.4337 321.883 82.2285 321.655C82.0233 321.426 81.7409 321.282 81.4357 321.25Z" fill="#FEFEFE"/>
<path d="M421.119 557.283C420.814 557.315 420.531 557.459 420.326 557.688C420.121 557.916 420.007 558.212 420.007 558.519C420.007 558.826 420.121 559.122 420.326 559.35C420.531 559.578 420.814 559.723 421.119 559.755C421.424 559.723 421.706 559.578 421.912 559.35C422.117 559.122 422.23 558.826 422.23 558.519C422.23 558.212 422.117 557.916 421.912 557.688C421.706 557.459 421.424 557.315 421.119 557.283Z" fill="#FEFEFE"/>
<path d="M89.4948 494.528C89.1896 494.56 88.9073 494.704 88.702 494.933C88.4968 495.161 88.3833 495.457 88.3833 495.764C88.3833 496.071 88.4968 496.367 88.702 496.595C88.9073 496.823 89.1896 496.967 89.4948 497C89.8 496.967 90.0824 496.823 90.2876 496.595C90.4928 496.367 90.6063 496.071 90.6063 495.764C90.6063 495.457 90.4928 495.161 90.2876 494.933C90.0824 494.704 89.8 494.56 89.4948 494.528Z" fill="#FEFEFE"/>
<path d="M59.8972 418.867C59.6847 418.894 59.4893 418.997 59.3477 419.158C59.2061 419.319 59.1279 419.526 59.1279 419.74C59.1279 419.954 59.2061 420.161 59.3477 420.322C59.4893 420.482 59.6847 420.586 59.8972 420.613C60.1097 420.586 60.3051 420.482 60.4468 420.322C60.5884 420.161 60.6665 419.954 60.6665 419.74C60.6665 419.526 60.5884 419.319 60.4468 419.158C60.3051 418.997 60.1097 418.894 59.8972 418.867Z" fill="#FEFEFE"/>
<path d="M255.076 576.46C254.863 576.487 254.668 576.59 254.526 576.751C254.385 576.912 254.307 577.118 254.307 577.333C254.307 577.547 254.385 577.754 254.526 577.914C254.668 578.075 254.863 578.179 255.076 578.206C255.288 578.179 255.484 578.075 255.625 577.914C255.767 577.754 255.845 577.547 255.845 577.333C255.845 577.118 255.767 576.912 255.625 576.751C255.484 576.59 255.288 576.487 255.076 576.46Z" fill="#FEFEFE"/>
<path d="M168.828 573.317C168.616 573.344 168.42 573.448 168.279 573.608C168.137 573.769 168.059 573.976 168.059 574.19C168.059 574.404 168.137 574.611 168.279 574.772C168.42 574.933 168.616 575.036 168.828 575.063C169.041 575.036 169.236 574.933 169.378 574.772C169.52 574.611 169.598 574.404 169.598 574.19C169.598 573.976 169.52 573.769 169.378 573.608C169.236 573.448 169.041 573.344 168.828 573.317Z" fill="#FEFEFE"/>
<path d="M317.105 566.124C316.509 566.17 315.951 566.439 315.545 566.878C315.138 567.317 314.913 567.893 314.913 568.492C314.913 569.09 315.138 569.666 315.545 570.105C315.951 570.544 316.509 570.813 317.105 570.859C317.702 570.813 318.259 570.544 318.665 570.105C319.072 569.666 319.298 569.09 319.298 568.492C319.298 567.893 319.072 567.317 318.665 566.878C318.259 566.439 317.702 566.17 317.105 566.124Z" fill="#FEFEFE"/>
<path d="M180.03 565.286C179.434 565.332 178.877 565.601 178.47 566.04C178.064 566.479 177.838 567.055 177.838 567.653C177.838 568.252 178.064 568.828 178.47 569.267C178.877 569.706 179.434 569.975 180.03 570.021C180.627 569.975 181.184 569.706 181.59 569.267C181.997 568.828 182.223 568.252 182.223 567.653C182.223 567.055 181.997 566.479 181.59 566.04C181.184 565.601 180.627 565.332 180.03 565.286Z" fill="#FEFEFE"/>
<path d="M184.514 390.346C184.234 391.817 183.523 393.171 182.473 394.238C181.423 395.305 180.08 396.037 178.614 396.34C177.148 396.644 175.625 396.506 174.237 395.944C172.849 395.382 171.659 394.422 170.817 393.183C169.976 391.945 169.52 390.485 169.508 388.988C169.496 387.491 169.928 386.024 170.75 384.773C171.572 383.521 172.746 382.541 174.124 381.957C175.503 381.373 177.024 381.211 178.494 381.491C179.471 381.677 180.402 382.054 181.233 382.599C182.064 383.145 182.78 383.849 183.339 384.671C183.898 385.494 184.289 386.418 184.491 387.392C184.693 388.365 184.701 389.369 184.514 390.346Z" fill="#FF9F00"/>
<path d="M191.615 352.896L185.934 351.815L178.824 389.192L184.505 390.272L191.615 352.896Z" fill="#FF9F00"/>
<path d="M210.633 384.103C210.355 385.574 209.647 386.931 208.597 388C207.548 389.069 206.206 389.803 204.739 390.108C203.273 390.414 201.749 390.278 200.36 389.717C198.971 389.156 197.78 388.196 196.937 386.958C196.094 385.72 195.637 384.26 195.624 382.762C195.612 381.264 196.043 379.796 196.865 378.544C197.687 377.292 198.862 376.311 200.241 375.727C201.62 375.143 203.142 374.981 204.613 375.261C206.583 375.637 208.323 376.779 209.452 378.437C210.58 380.094 211.005 382.132 210.633 384.103Z" fill="#FF9F00"/>
<path d="M217.739 346.656L212.059 345.576L204.949 382.953L210.629 384.033L217.739 346.656Z" fill="#FF9F00"/>
<path d="M217.742 346.726L185.003 356.797L185.953 351.81L218.692 341.726L217.742 346.726Z" fill="#FF9F00"/>
<path d="M215.955 356.14L183.215 366.211L184.165 361.224L216.904 351.14L215.955 356.14Z" fill="#FF9F00"/>
<path d="M510.761 190.069C510.476 191.537 509.762 192.888 508.709 193.951C507.657 195.013 506.313 195.741 504.847 196.04C503.382 196.34 501.86 196.199 500.475 195.635C499.09 195.07 497.903 194.109 497.064 192.87C496.225 191.632 495.771 190.173 495.76 188.677C495.75 187.182 496.182 185.716 497.004 184.466C497.825 183.216 498.999 182.238 500.376 181.654C501.753 181.07 503.272 180.907 504.742 181.186C505.722 181.37 506.656 181.746 507.491 182.294C508.325 182.841 509.043 183.547 509.602 184.373C510.162 185.199 510.552 186.128 510.751 187.105C510.95 188.083 510.954 189.09 510.761 190.069Z" fill="#FF9F00"/>
<path d="M517.89 152.627L512.209 151.547L505.1 188.923L510.78 190.004L517.89 152.627Z" fill="#FF9F00"/>
<path d="M539.003 146.686L533.322 145.605L531.268 156.404L536.949 157.484L539.003 146.686Z" fill="#FF9F00"/>
<path d="M538.738 148.098L511.265 156.52L512.214 151.534L539.688 143.097L538.738 148.098Z" fill="#FF9F00"/>
<path d="M536.95 157.512L509.477 165.948L510.426 160.948L537.9 152.511L536.95 157.512Z" fill="#FF9F00"/>
<path d="M520.93 416.102C509.993 440.251 492.408 439.72 487.576 445.545C484.872 449.319 482.386 453.246 480.131 457.305L453.929 448.925C454.443 444.31 454.69 439.67 454.669 435.027C454.124 427.485 439.459 417.722 444.557 391.729C447.881 374.633 468.58 352.62 496.236 361.42C523.891 370.219 528.109 400.235 520.93 416.102Z" fill="#FF9F00"/>
<path d="M464.896 408.509L459.332 452.674L460.718 452.848L466.281 408.684L464.896 408.509Z" fill="white"/>
<path d="M493.439 417.394L472.322 456.579L473.551 457.242L494.668 418.056L493.439 417.394Z" fill="white"/>
<path d="M476.709 427.206C476.236 427.22 475.764 427.154 475.313 427.01C473.26 426.354 471.709 424.063 470.941 420.557C470.941 420.404 470.941 420.236 470.843 420.082C470.462 420.345 470.031 420.525 469.576 420.611C469.122 420.698 468.654 420.689 468.203 420.585C464.279 419.328 465.284 410.738 465.326 410.375L466.025 410.459C466.025 410.543 465.033 418.839 468.413 419.915C468.818 419.991 469.234 419.976 469.632 419.873C470.031 419.769 470.401 419.578 470.717 419.314C470.145 415.376 470.634 410.627 472.449 408.965C472.732 408.695 473.084 408.508 473.466 408.425C473.847 408.341 474.245 408.363 474.614 408.49C476.332 409.034 476.891 410.738 476.123 413.141C475.22 415.707 473.613 417.967 471.486 419.663C471.486 419.915 471.569 420.152 471.625 420.404C472.044 422.289 473.092 425.572 475.522 426.34C477.156 426.871 479.196 426.102 481.291 424.203C481.458 424.049 481.64 423.882 481.808 423.7C480.84 421.212 480.781 418.462 481.64 415.934C482.576 413.015 484.238 411.562 486.012 412.121C486.353 412.235 486.656 412.44 486.89 412.713C487.123 412.986 487.279 413.317 487.339 413.672C487.855 416.06 485.676 420.655 482.632 423.854C483.123 424.763 483.942 425.452 484.922 425.781C487.325 426.549 491.277 421.493 492.604 419.482L493.177 419.859C492.981 420.18 488.107 427.541 484.713 426.452C483.631 426.087 482.718 425.343 482.143 424.356L481.752 424.72C480.414 426.114 478.63 426.994 476.709 427.206ZM485.369 412.708C483.972 412.708 482.939 414.482 482.408 416.144C481.673 418.414 481.673 420.858 482.408 423.127C485.202 420.11 487.213 415.864 486.752 413.755C486.72 413.52 486.621 413.3 486.468 413.119C486.314 412.938 486.112 412.805 485.886 412.736C485.703 412.695 485.514 412.685 485.327 412.708H485.369ZM474.014 409.076C473.83 409.075 473.648 409.11 473.478 409.18C473.307 409.249 473.153 409.352 473.022 409.481C471.625 410.794 470.941 414.929 471.458 418.853C473.316 417.271 474.727 415.229 475.55 412.931C475.927 411.758 476.276 409.719 474.489 409.146C474.302 409.095 474.109 409.071 473.916 409.076H474.014Z" fill="white"/>
<path d="M483.525 457.197L451.193 446.873L449.175 453.193L481.507 463.518L483.525 457.197Z" fill="#FBFDFF"/>
<path d="M481.168 464.53L448.836 454.206L446.818 460.526L479.15 470.85L481.168 464.53Z" fill="#FBFDFF"/>
<path d="M478.821 471.877L446.489 461.552L444.471 467.872L476.803 478.197L478.821 471.877Z" fill="#FBFDFF"/>
<path d="M501.987 339.952L498.646 350.439L499.977 350.863L503.318 340.376L501.987 339.952Z" fill="#DBDBDB"/>
<path d="M471.264 338.522L469.899 338.819L472.242 349.573L473.606 349.276L471.264 338.522Z" fill="#DBDBDB"/>
<path d="M442.529 352.829L441.496 353.769L448.903 361.91L449.936 360.97L442.529 352.829Z" fill="#DBDBDB"/>
<path d="M424.849 379.722L424.424 381.052L434.909 384.4L435.334 383.07L424.849 379.722Z" fill="#DBDBDB"/>
<path d="M433.657 409.445L422.903 411.788L423.201 413.153L433.955 410.81L433.657 409.445Z" fill="#DBDBDB"/>
<path d="M518.569 436.705L517.536 437.645L524.942 445.786L525.975 444.847L518.569 436.705Z" fill="#DBDBDB"/>
<path d="M532.61 414.297L532.186 415.628L542.67 418.976L543.095 417.645L532.61 414.297Z" fill="#DBDBDB"/>
<path d="M544.274 385.448L533.521 387.79L533.818 389.155L544.572 386.812L544.274 385.448Z" fill="#DBDBDB"/>
<path d="M529.222 357.063L521.088 364.478L522.029 365.51L530.163 358.095L529.222 357.063Z" fill="#DBDBDB"/>
</svg>
