<svg width="55" height="55" viewBox="0 0 55 55" fill="none" xmlns="http://www.w3.org/2000/svg">
<path fill-rule="evenodd" clip-rule="evenodd" d="M32.1851 0.259131C32.4709 0.518261 32.513 0.946991 32.5973 1.80445L33.1764 7.69947C33.3387 9.35127 33.4199 10.1772 33.9768 10.4056C34.5336 10.634 35.1713 10.1029 36.4467 9.04077L40.8853 5.34435C41.5571 4.78486 41.8931 4.50512 42.2829 4.52459C42.6728 4.54407 42.9792 4.8559 43.5919 5.47956L48.6963 10.6751C49.2894 11.2788 49.5859 11.5807 49.6048 11.9605C49.6238 12.3403 49.3586 12.6701 48.8284 13.3298L45.0868 17.9845C44.0694 19.2502 43.5607 19.8831 43.7902 20.4318C44.0197 20.9806 44.8275 21.0628 46.4431 21.2272L52.2376 21.817C53.092 21.904 53.5192 21.9475 53.7771 22.233C54.0351 22.5186 54.0351 22.948 54.0351 23.8068V31.1932C54.0351 32.052 54.0351 32.4814 53.7771 32.767C53.5192 33.0525 53.092 33.096 52.2376 33.183L46.4435 33.7727H46.4434C44.8279 33.9372 44.0201 34.0194 43.7906 34.5681C43.5611 35.1169 44.0698 35.7498 45.0872 37.0155L48.8279 41.669C49.3581 42.3287 49.6232 42.6585 49.6043 43.0383C49.5854 43.4181 49.2888 43.72 48.6957 44.3237L43.5913 49.5192C42.9786 50.1429 42.6722 50.4547 42.2824 50.4742C41.8925 50.4937 41.5566 50.2139 40.8848 49.6544L36.4468 45.9585C35.1714 44.8964 34.5337 44.3653 33.9768 44.5937C33.4199 44.8221 33.3388 45.648 33.1765 47.2998L32.5973 53.1955C32.513 54.053 32.4709 54.4817 32.1851 54.7409C31.8992 55 31.4685 55 30.6069 55H23.4261C22.5645 55 22.1337 55 21.8479 54.7409C21.5621 54.4817 21.5199 54.053 21.4357 53.1955L20.8567 47.302C20.6944 45.6502 20.6133 44.8243 20.0564 44.5959C19.4995 44.3675 18.8618 44.8986 17.5864 45.9607L13.1495 49.6557C12.4777 50.2152 12.1418 50.4949 11.7519 50.4754C11.3621 50.456 11.0557 50.1441 10.443 49.5205L5.33862 44.325C4.7455 43.7212 4.44893 43.4194 4.43003 43.0396C4.41112 42.6597 4.67623 42.3299 5.20647 41.6703L8.94813 37.0155C9.96554 35.7498 10.4742 35.1169 10.2447 34.5682C10.0152 34.0194 9.20742 33.9372 7.59187 33.7727H7.59183L1.79748 33.1829C0.943098 33.096 0.515909 33.0525 0.257955 32.767C0 32.4814 0 32.052 0 31.1932V23.8068C0 22.948 0 22.5186 0.257955 22.233C0.515908 21.9475 0.943092 21.904 1.79746 21.817H1.79748L7.59222 21.2272C9.20779 21.0628 10.0156 20.9806 10.2451 20.4318C10.4746 19.883 9.96592 19.2502 8.94851 17.9845L5.20591 13.3285C4.67568 12.6689 4.41056 12.339 4.42947 11.9592C4.44838 11.5794 4.74494 11.2775 5.33806 10.6738L10.4424 5.4783C11.0552 4.85464 11.3615 4.54281 11.7514 4.52334C12.1413 4.50386 12.4772 4.7836 13.149 5.34309L17.5865 9.03858C18.8619 10.1007 19.4996 10.6318 20.0564 10.4034C20.6133 10.175 20.6945 9.34908 20.8568 7.69728L21.4357 1.80445C21.5199 0.946991 21.5621 0.518261 21.8479 0.259131C22.1337 0 22.5645 0 23.4261 0H30.6069C31.4685 0 31.8992 0 32.1851 0.259131ZM27.0174 38.5C32.9859 38.5 37.8244 33.5751 37.8244 27.5C37.8244 21.4249 32.9859 16.5 27.0174 16.5C21.0488 16.5 16.2104 21.4249 16.2104 27.5C16.2104 33.5751 21.0488 38.5 27.0174 38.5Z" fill="#00BFC5"/>
</svg>
