<svg width="117" height="117" viewBox="0 0 117 117" fill="none" xmlns="http://www.w3.org/2000/svg">
<path d="M58.5 78C66.7875 70.525 72.1094 65.2633 74.4656 62.2148C76.8219 59.1663 78 56.1405 78 53.1375C78 50.2125 76.9438 47.6938 74.8313 45.5813C72.7188 43.4688 70.2 42.4125 67.275 42.4125C65.5688 42.4125 63.9226 42.757 62.3366 43.446C60.7506 44.135 59.4718 45.0905 58.5 46.3125C57.525 45.0938 56.2656 44.1382 54.7219 43.446C53.1781 42.7537 51.5125 42.4092 49.725 42.4125C46.8 42.4125 44.2813 43.4688 42.1688 45.5813C40.0563 47.6938 39 50.2125 39 53.1375C39 54.6812 39.2031 56.1031 39.6094 57.4031C40.0156 58.7031 40.9094 60.2274 42.2906 61.9759C43.6719 63.7211 45.6414 65.8531 48.1991 68.3719C50.7569 70.8906 54.1905 74.1 58.5 78ZM58.5 107.25C47.2063 104.406 37.882 97.9257 30.5273 87.8085C23.1725 77.6912 19.4968 66.4593 19.5 54.1125V24.375L58.5 9.75L97.5 24.375V54.1125C97.5 66.4625 93.8226 77.6961 86.4679 87.8134C79.1131 97.9306 69.7905 104.409 58.5 107.25Z" fill="#11D9DF"/>
</svg>
