<svg width="129" height="113" viewBox="0 0 129 113" fill="none" xmlns="http://www.w3.org/2000/svg">
<path d="M72.1943 67.0938C72.1943 66.1572 72.6168 65.259 73.369 64.5968C74.1212 63.9345 75.1413 63.5625 76.2051 63.5625H92.2483C93.312 63.5625 94.3322 63.9345 95.0843 64.5968C95.8365 65.259 96.2591 66.1572 96.2591 67.0938V81.2188C96.2591 82.1553 95.8365 83.0535 95.0843 83.7157C94.3322 84.378 93.312 84.75 92.2483 84.75H76.2051C75.1413 84.75 74.1212 84.378 73.369 83.7157C72.6168 83.0535 72.1943 82.1553 72.1943 81.2188V67.0938ZM80.2159 77.6875H88.2375V70.625H80.2159V77.6875ZM33.5943 7.83938L13.5403 21.9644C12.2087 22.8966 12.0322 24.5069 12.0322 25.9194V38.8438C12.0322 42.8199 13.5242 46.4854 16.043 49.4375V102.406C16.043 103.343 16.4656 104.241 17.2178 104.903C17.9699 105.565 18.9901 105.938 20.0538 105.938H108.291C109.355 105.938 110.375 105.565 111.128 104.903C111.88 104.241 112.302 103.343 112.302 102.406V49.4375C114.821 46.4854 116.313 42.8199 116.313 38.8438V25.8911C116.313 24.4786 116.137 22.8966 114.805 21.9644L94.751 7.83938C94.0411 7.33789 93.1585 7.06393 92.2483 7.0625H36.097C35.1868 7.06393 34.3043 7.33789 33.5943 7.83938ZM44.1186 28.25V38.8438C44.1186 41.6534 42.8509 44.348 40.5944 46.3347C38.3379 48.3214 35.2774 49.4375 32.0862 49.4375C28.895 49.4375 25.8346 48.3214 23.578 46.3347C21.3215 44.348 20.0538 41.6534 20.0538 38.8438V28.25H44.1186ZM76.2051 28.25V38.8438C76.2051 41.6534 74.9374 44.348 72.6809 46.3347C70.4243 48.3214 67.3638 49.4375 64.1727 49.4375C60.9815 49.4375 57.921 48.3214 55.6645 46.3347C53.4079 44.348 52.1402 41.6534 52.1402 38.8438V28.25H76.2051ZM108.291 28.25V38.8438C108.291 41.6534 107.024 44.348 104.767 46.3347C102.511 48.3214 99.4503 49.4375 96.2591 49.4375C93.0679 49.4375 90.0074 48.3214 87.7509 46.3347C85.4944 44.348 84.2267 41.6534 84.2267 38.8438V28.25H108.291ZM48.3621 14.125L45.354 21.1875H27.4738L37.5008 14.125H48.3701H48.3621ZM53.921 21.1875L56.9291 14.125H71.3119L73.9831 21.1875H53.921ZM79.7667 14.125H90.8365L100.863 21.1875H82.4379L79.7667 14.125ZM104.281 55.031V98.875H64.1727V67.0938C64.1727 66.1572 63.7501 65.259 62.9979 64.5968C62.2457 63.9345 61.2256 63.5625 60.1619 63.5625H36.097C35.0333 63.5625 34.0131 63.9345 33.261 64.5968C32.5088 65.259 32.0862 66.1572 32.0862 67.0938V98.875H24.0646V55.031C28.2042 56.6264 32.835 56.942 37.2042 55.9264C41.5733 54.9109 45.4237 52.624 48.1294 49.4375C51.7873 53.7244 57.611 56.5 64.1727 56.5C70.7343 56.5 76.558 53.7244 80.2159 49.4375C82.9216 52.624 86.772 54.9109 91.1412 55.9264C95.5103 56.942 100.141 56.6264 104.281 55.031ZM56.1511 98.875H40.1078V70.625H56.1511V98.875Z" fill="#11D9DF"/>
</svg>
