<svg width="24" height="24" viewBox="0 0 24 24" fill="none" xmlns="http://www.w3.org/2000/svg">
<path d="M12 16C13.7 14.4667 14.7917 13.3873 15.275 12.762C15.7583 12.1367 16 11.516 16 10.9C16 10.3 15.7833 9.78333 15.35 9.35C14.9167 8.91667 14.4 8.7 13.8 8.7C13.45 8.7 13.1123 8.77067 12.787 8.912C12.4617 9.05333 12.1993 9.24933 12 9.5C11.8 9.25 11.5417 9.054 11.225 8.912C10.9083 8.77 10.5667 8.69933 10.2 8.7C9.6 8.7 9.08333 8.91667 8.65 9.35C8.21667 9.78333 8 10.3 8 10.9C8 11.2167 8.04167 11.5083 8.125 11.775C8.20833 12.0417 8.39167 12.3543 8.675 12.713C8.95833 13.071 9.36233 13.5083 9.887 14.025C10.4117 14.5417 11.116 15.2 12 16ZM12 22C9.68333 21.4167 7.77067 20.0873 6.262 18.012C4.75333 15.9367 3.99933 13.6327 4 11.1V5L12 2L20 5V11.1C20 13.6333 19.2457 15.9377 17.737 18.013C16.2283 20.0883 14.316 21.4173 12 22Z" fill="#11D9DF"/>
</svg>
