<svg width="78" height="78" viewBox="0 0 78 78" fill="none" xmlns="http://www.w3.org/2000/svg">
<path d="M69.8711 50.547C70.7495 47.6578 70.862 44.6293 70.1999 41.6957C69.5378 38.7622 68.1189 36.0021 66.0529 33.6292C63.987 31.2562 61.3294 29.3339 58.2856 28.011C55.2419 26.6881 51.8937 26 48.5 26C45.1063 26 41.7581 26.6881 38.7144 28.011C35.6706 29.3339 33.013 31.2562 30.9471 33.6292C28.8811 36.0021 27.4622 38.7622 26.8001 41.6957C26.138 44.6293 26.2505 47.6578 27.1289 50.547" stroke="#33363F" stroke-width="2" stroke-linecap="round"/>
<path d="M50.3822 46.7617C51.5805 48.2986 50.7378 50.6433 48.4999 51.9988C46.2619 53.3542 43.4763 53.207 42.2779 51.6701C40.7741 49.7413 34.9278 37.3129 32.6799 32.4846C32.4616 32.0157 33.0832 31.6393 33.5015 31.9869C37.8098 35.5674 48.8783 44.8329 50.3822 46.7617Z" stroke="#33363F" stroke-width="2"/>
<path d="M48.5 26V30.3333" stroke="#33363F" stroke-width="2" stroke-linecap="round"/>
<path d="M32.8555 31.7108L36.3321 34.7749" stroke="#33363F" stroke-width="2" stroke-linecap="round"/>
<path d="M64.1445 31.7108L60.6679 34.7749" stroke="#33363F" stroke-width="2" stroke-linecap="round"/>
<path d="M69.8711 50.5464L65.122 49.4248" stroke="#33363F" stroke-width="2" stroke-linecap="round"/>
<path d="M27.1289 50.5464L31.878 49.4248" stroke="#33363F" stroke-width="2" stroke-linecap="round"/>
</svg>
