<svg width="51" height="24" viewBox="0 0 51 24" fill="none" xmlns="http://www.w3.org/2000/svg">
<path fill-rule="evenodd" clip-rule="evenodd" d="M50.6025 23.0001C50.6273 23.5519 50.1773 24 49.625 24H37.6525C37.1002 24 36.6578 23.5511 36.6019 23.0016C36.3726 20.7467 35.3716 18.6162 33.7421 16.9354L43.6085 7.65805L43.2722 7.30037C47.7291 11.4941 50.337 17.1007 50.6025 23.0001ZM42.8969 6.95454C38.3434 2.84528 32.3105 0.497611 26 0.379639V13.5238C28.6042 13.6336 31.0858 14.5982 33.0122 16.2491L42.8969 6.95454ZM17.9878 16.2491C19.9141 14.5982 22.3958 13.6336 25 13.5238V0.379639C18.6895 0.497611 12.6565 2.8453 8.10301 6.95457L17.9878 16.2491ZM7.72705 7.30103C3.27061 11.4947 0.662982 17.101 0.397465 23.0001C0.372632 23.5519 0.822694 24 1.37498 24L13.3474 24C13.8997 24 14.3422 23.5511 14.3981 23.0016C14.6273 20.7467 15.6283 18.6162 17.2578 16.9354L7.39135 7.65805L7.72705 7.30103Z" fill="#222222"/>
</svg>
